<svg xmlns="http://www.w3.org/2000/svg" width="960" height="330" viewBox="0 0 960 330" role="img" aria-labelledby="title desc">
<title id="title">Recent Repository Activity</title>
<desc id="desc">Recent public repository updates served as a local SVG.</desc>
<defs>
<linearGradient id="bg" x1="0" y1="0" x2="1" y2="1">
<stop offset="0%" stop-color="#0D1117"/>
<stop offset="100%" stop-color="#1B2030"/>
</linearGradient>
<linearGradient id="neon" x1="0" y1="0" x2="1" y2="0">
<stop offset="0%" stop-color="#22D3EE"/>
<stop offset="50%" stop-color="#A78BFA"/>
<stop offset="100%" stop-color="#F472B6"/>
</linearGradient>
<style><![CDATA[
.title{font:800 25px Segoe UI,Inter,Arial,sans-serif;fill:#E5E7EB}
.subtitle{font:700 14px Consolas,Menlo,monospace;fill:#22D3EE}
.label{font:700 13px Consolas,Menlo,monospace;fill:#94A3B8}
.value{font:800 24px Segoe UI,Inter,Arial,sans-serif;fill:#E5E7EB}
.body{font:600 13px Segoe UI,Inter,Arial,sans-serif;fill:#CBD5E1}
.mono{font:600 11px Consolas,Menlo,monospace;fill:#94A3B8}
.axis{stroke:#334155;stroke-width:1}
]]></style>
</defs>
<rect width="960" height="330" rx="18" fill="url(#bg)"/>
<rect x="0.5" y="0.5" width="959" height="329" rx="17.5" fill="none" stroke="#263244"/>
<path d="M28 56 H932" stroke="url(#neon)" stroke-width="2" opacity="0.7"/>
<text x="28" y="36" class="title">Recent Repository Activity</text>
<text x="28" y="78" class="subtitle">Recent default-branch updates from public owner repositories</text>
<rect x="34" y="90" width="892" height="25" rx="12" fill="#161B22" stroke="#F97316" stroke-opacity="0.35"/>
<circle cx="50" cy="103" r="5" fill="#F97316"/>
<text x="66" y="108" class="body">fishman7337</text>
<text x="760" y="108" class="mono">2026-06-11 00:14 SGT</text>
<rect x="34" y="119" width="892" height="25" rx="12" fill="#161B22" stroke="#60A5FA" stroke-opacity="0.35"/>
<circle cx="50" cy="132" r="5" fill="#60A5FA"/>
<text x="66" y="137" class="body">yubikey-secure-endpoint-system</text>
<text x="760" y="137" class="mono">2026-06-10 23:15 SGT</text>
<rect x="34" y="148" width="892" height="25" rx="12" fill="#161B22" stroke="#34D399" stroke-opacity="0.35"/>
<circle cx="50" cy="161" r="5" fill="#34D399"/>
<text x="66" y="166" class="body">ISR</text>
<text x="760" y="166" class="mono">2026-06-10 17:46 SGT</text>
<rect x="34" y="177" width="892" height="25" rx="12" fill="#161B22" stroke="#A78BFA" stroke-opacity="0.35"/>
<circle cx="50" cy="190" r="5" fill="#A78BFA"/>
<text x="66" y="195" class="body">sp-daaa-doaa-ca2-vegetable-classification-application</text>
<text x="760" y="195" class="mono">2026-06-04 11:54 SGT</text>
<rect x="34" y="206" width="892" height="25" rx="12" fill="#161B22" stroke="#F472B6" stroke-opacity="0.35"/>
<circle cx="50" cy="219" r="5" fill="#F472B6"/>
<text x="66" y="224" class="body">sp-daaa-dele-ca2-pendulum-reinforcement-learning</text>
<text x="760" y="224" class="mono">2026-06-04 09:15 SGT</text>
<rect x="34" y="235" width="892" height="25" rx="12" fill="#161B22" stroke="#F59E0B" stroke-opacity="0.35"/>
<circle cx="50" cy="248" r="5" fill="#F59E0B"/>
<text x="66" y="253" class="body">leaf-object-detection</text>
<text x="760" y="253" class="mono">2026-05-22 15:17 SGT</text>
<rect x="34" y="264" width="892" height="25" rx="12" fill="#161B22" stroke="#22D3EE" stroke-opacity="0.35"/>
<circle cx="50" cy="277" r="5" fill="#22D3EE"/>
<text x="66" y="282" class="body">global-security-policy-intelligence</text>
<text x="760" y="282" class="mono">2026-05-03 03:10 SGT</text>
<text x="28" y="308" class="mono">Snapshot 2026-06-11 01:20 - checked into this repository for reliable README rendering</text>
</svg>
