<svg xmlns="http://www.w3.org/2000/svg" width="470" height="280" viewBox="0 0 470 280" role="img" aria-labelledby="title desc">
<title id="title">Top Languages by Code</title>
<desc id="desc">Language bytes across public repositories.</desc>
<defs>
<linearGradient id="bg" x1="0" y1="0" x2="1" y2="1">
<stop offset="0%" stop-color="#0D1117"/>
<stop offset="100%" stop-color="#1B2030"/>
</linearGradient>
<linearGradient id="neon" x1="0" y1="0" x2="1" y2="0">
<stop offset="0%" stop-color="#22D3EE"/>
<stop offset="50%" stop-color="#A78BFA"/>
<stop offset="100%" stop-color="#F472B6"/>
</linearGradient>
<style><![CDATA[
.title{font:800 25px Segoe UI,Inter,Arial,sans-serif;fill:#E5E7EB}
.subtitle{font:700 14px Consolas,Menlo,monospace;fill:#22D3EE}
.label{font:700 13px Consolas,Menlo,monospace;fill:#94A3B8}
.value{font:800 24px Segoe UI,Inter,Arial,sans-serif;fill:#E5E7EB}
.body{font:600 13px Segoe UI,Inter,Arial,sans-serif;fill:#CBD5E1}
.mono{font:600 11px Consolas,Menlo,monospace;fill:#94A3B8}
.axis{stroke:#334155;stroke-width:1}
]]></style>
</defs>
<rect width="470" height="280" rx="18" fill="url(#bg)"/>
<rect x="0.5" y="0.5" width="469" height="279" rx="17.5" fill="none" stroke="#263244"/>
<path d="M28 56 H442" stroke="url(#neon)" stroke-width="2" opacity="0.7"/>
<text x="28" y="36" class="title">Top Languages by Code</text>
<text x="28" y="103" class="body">Jupyter Notebook</text>
<rect x="200" y="88" width="186" height="16" rx="8" fill="#0F172A"/>
<rect x="200" y="88" width="184" height="16" rx="8" fill="#F97316"/>
<text x="398" y="101" class="mono">99.0%</text>
<text x="28" y="133" class="body">Python</text>
<rect x="200" y="118" width="186" height="16" rx="8" fill="#0F172A"/>
<rect x="200" y="118" width="6" height="16" rx="8" fill="#60A5FA"/>
<text x="398" y="131" class="mono"> 0.9%</text>
<text x="28" y="163" class="body">TeX</text>
<rect x="200" y="148" width="186" height="16" rx="8" fill="#0F172A"/>
<rect x="200" y="148" width="6" height="16" rx="8" fill="#34D399"/>
<text x="398" y="161" class="mono"> 0.1%</text>
<text x="28" y="193" class="body">HTML</text>
<rect x="200" y="178" width="186" height="16" rx="8" fill="#0F172A"/>
<rect x="200" y="178" width="6" height="16" rx="8" fill="#A78BFA"/>
<text x="398" y="191" class="mono"> 0.0%</text>
<text x="28" y="223" class="body">Makefile</text>
<rect x="200" y="208" width="186" height="16" rx="8" fill="#0F172A"/>
<rect x="200" y="208" width="6" height="16" rx="8" fill="#F472B6"/>
<text x="398" y="221" class="mono"> 0.0%</text>
<text x="286" y="262" class="mono">Snapshot 2026-06-11 01:20</text>
</svg>
