<svg xmlns="http://www.w3.org/2000/svg" width="960" height="300" viewBox="0 0 960 300" role="img" aria-labelledby="title desc">
<title id="title">GitHub Telemetry Snapshot</title>
<desc id="desc">Local checked-in telemetry snapshot for fishman7337.</desc>
<defs>
<linearGradient id="bg" x1="0" y1="0" x2="1" y2="1">
<stop offset="0%" stop-color="#0D1117"/>
<stop offset="100%" stop-color="#1B2030"/>
</linearGradient>
<linearGradient id="neon" x1="0" y1="0" x2="1" y2="0">
<stop offset="0%" stop-color="#22D3EE"/>
<stop offset="50%" stop-color="#A78BFA"/>
<stop offset="100%" stop-color="#F472B6"/>
</linearGradient>
<style><![CDATA[
.title{font:800 28px Segoe UI,Inter,Arial,sans-serif;fill:#E5E7EB}
.subtitle{font:700 14px Consolas,Menlo,monospace;fill:#22D3EE}
.label{font:700 13px Consolas,Menlo,monospace;fill:#94A3B8}
.value{font:800 25px Segoe UI,Inter,Arial,sans-serif;fill:#E5E7EB}
.body{font:600 14px Segoe UI,Inter,Arial,sans-serif;fill:#CBD5E1}
.mono{font:600 12px Consolas,Menlo,monospace;fill:#94A3B8}
.axis{stroke:#334155;stroke-width:1}
]]></style>
</defs>
<rect width="960" height="300" rx="18" fill="url(#bg)"/>
<rect x="0.5" y="0.5" width="959" height="299" rx="17.5" fill="none" stroke="#263244"/>
<path d="M28 54 H932" stroke="url(#neon)" stroke-width="2" opacity="0.7"/>
<text x="28" y="36" class="title">GitHub Telemetry Snapshot</text>
<text x="28" y="78" class="subtitle">Local SVG snapshot - no third-party card service at README render time</text>
<rect x="28" y="104" width="150" height="72" rx="14" fill="#161B22" stroke="#22D3EE" stroke-opacity="0.42"/>
<text x="44" y="132" class="label">Repos</text>
<text x="44" y="162" class="value">24</text>
<rect x="194" y="104" width="150" height="72" rx="14" fill="#161B22" stroke="#A78BFA" stroke-opacity="0.42"/>
<text x="210" y="132" class="label">Stars</text>
<text x="210" y="162" class="value">1</text>
<rect x="360" y="104" width="150" height="72" rx="14" fill="#161B22" stroke="#34D399" stroke-opacity="0.42"/>
<text x="376" y="132" class="label">Forks</text>
<text x="376" y="162" class="value">1</text>
<rect x="526" y="104" width="150" height="72" rx="14" fill="#161B22" stroke="#F472B6" stroke-opacity="0.42"/>
<text x="542" y="132" class="label">Followers</text>
<text x="542" y="162" class="value">2</text>
<rect x="692" y="104" width="150" height="72" rx="14" fill="#161B22" stroke="#F59E0B" stroke-opacity="0.42"/>
<text x="708" y="132" class="label">Timezone</text>
<text x="708" y="162" class="value">SGT</text>
<text x="28" y="214" class="subtitle">Top language footprint</text>
<text x="28" y="249" class="body">Jupyter Notebook</text>
<rect x="193" y="234" width="300" height="16" rx="8" fill="#0F172A"/>
<rect x="193" y="234" width="285" height="16" rx="8" fill="#F97316"/>
<text x="504" y="247" class="mono">95.3%</text>
<text x="28" y="271" class="body">HTML</text>
<rect x="193" y="256" width="300" height="16" rx="8" fill="#0F172A"/>
<rect x="193" y="256" width="8" height="16" rx="8" fill="#60A5FA"/>
<text x="504" y="269" class="mono"> 2.9%</text>
<text x="28" y="293" class="body">Python</text>
<rect x="193" y="278" width="300" height="16" rx="8" fill="#0F172A"/>
<rect x="193" y="278" width="6" height="16" rx="8" fill="#34D399"/>
<text x="504" y="291" class="mono"> 1.4%</text>
<text x="28" y="315" class="body">TeX</text>
<rect x="193" y="300" width="300" height="16" rx="8" fill="#0F172A"/>
<rect x="193" y="300" width="6" height="16" rx="8" fill="#A78BFA"/>
<text x="504" y="313" class="mono"> 0.3%</text>
<text x="28" y="337" class="body">JavaScript</text>
<rect x="193" y="322" width="300" height="16" rx="8" fill="#0F172A"/>
<rect x="193" y="322" width="6" height="16" rx="8" fill="#F472B6"/>
<text x="504" y="335" class="mono"> 0.1%</text>
<text x="520" y="214" class="subtitle">Recently updated repos</text>
<circle cx="530" cy="234" r="5" fill="#F97316"/>
<text x="546" y="238" class="body">yubikey-secure-endpoint-system</text>
<text x="820" y="238" class="mono">2026-06-10</text>
<circle cx="530" cy="256" r="5" fill="#60A5FA"/>
<text x="546" y="260" class="body">ISR</text>
<text x="820" y="260" class="mono">2026-06-10</text>
<circle cx="530" cy="278" r="5" fill="#34D399"/>
<text x="546" y="282" class="body">fishman7337</text>
<text x="820" y="282" class="mono">2026-06-10</text>
<circle cx="530" cy="300" r="5" fill="#A78BFA"/>
<text x="546" y="304" class="body">sp-daaa-doaa-ca2-vegetable-classi...</text>
<text x="820" y="304" class="mono">2026-06-04</text>
<text x="692" y="286" class="mono">Generated 2026-06-11 00:13 from live GitHub API</text>
</svg>
