<svg xmlns="http://www.w3.org/2000/svg" width="470" height="240" viewBox="0 0 470 240" role="img" aria-labelledby="title desc">
<title id="title">Top Languages by Repo</title>
<desc id="desc">Repository primary languages.</desc>
<defs>
<linearGradient id="bg" x1="0" y1="0" x2="1" y2="1">
<stop offset="0%" stop-color="#0D1117"/>
<stop offset="100%" stop-color="#1B2030"/>
</linearGradient>
<linearGradient id="neon" x1="0" y1="0" x2="1" y2="0">
<stop offset="0%" stop-color="#22D3EE"/>
<stop offset="50%" stop-color="#A78BFA"/>
<stop offset="100%" stop-color="#F472B6"/>
</linearGradient>
<style><![CDATA[
.title{font:800 28px Segoe UI,Inter,Arial,sans-serif;fill:#E5E7EB}
.subtitle{font:700 14px Consolas,Menlo,monospace;fill:#22D3EE}
.label{font:700 13px Consolas,Menlo,monospace;fill:#94A3B8}
.value{font:800 25px Segoe UI,Inter,Arial,sans-serif;fill:#E5E7EB}
.body{font:600 14px Segoe UI,Inter,Arial,sans-serif;fill:#CBD5E1}
.mono{font:600 12px Consolas,Menlo,monospace;fill:#94A3B8}
.axis{stroke:#334155;stroke-width:1}
]]></style>
</defs>
<rect width="470" height="240" rx="18" fill="url(#bg)"/>
<rect x="0.5" y="0.5" width="469" height="239" rx="17.5" fill="none" stroke="#263244"/>
<path d="M28 54 H442" stroke="url(#neon)" stroke-width="2" opacity="0.7"/>
<text x="28" y="36" class="title">Top Languages by Repo</text>
<text x="28" y="96" class="body">Jupyter Notebook</text>
<rect x="198" y="82" width="200" height="14" rx="7" fill="#0F172A"/>
<rect x="198" y="82" width="200" height="14" rx="7" fill="#F97316"/>
<text x="408" y="94" class="mono">17</text>
<text x="28" y="123" class="body">Python</text>
<rect x="198" y="109" width="200" height="14" rx="7" fill="#0F172A"/>
<rect x="198" y="109" width="58" height="14" rx="7" fill="#60A5FA"/>
<text x="408" y="121" class="mono">5</text>
<text x="28" y="150" class="body">Rust</text>
<rect x="198" y="136" width="200" height="14" rx="7" fill="#0F172A"/>
<rect x="198" y="136" width="11" height="14" rx="7" fill="#34D399"/>
<text x="408" y="148" class="mono">1</text>
<text x="28" y="177" class="body">HTML</text>
<rect x="198" y="163" width="200" height="14" rx="7" fill="#0F172A"/>
<rect x="198" y="163" width="11" height="14" rx="7" fill="#A78BFA"/>
<text x="408" y="175" class="mono">1</text>
<text x="300" y="226" class="mono">Snapshot 2026-06-11 00:13</text>
</svg>
