<svg xmlns="http://www.w3.org/2000/svg" width="88" height="88" viewBox="0 0 88 88" role="img" aria-labelledby="title desc">
<title id="title">FastAPI</title>
<desc id="desc">Rounded square logo card for FastAPI</desc>
<defs>
  <linearGradient id="card-bg" x1="0" y1="0" x2="1" y2="1">
    <stop offset="0%" stop-color="#172033"/>
    <stop offset="54%" stop-color="#0B1F2A"/>
    <stop offset="100%" stop-color="#061F1B"/>
  </linearGradient>
  <linearGradient id="card-stroke" x1="0" y1="0" x2="1" y2="1">
    <stop offset="0%" stop-color="#22D3EE"/>
    <stop offset="52%" stop-color="#A78BFA"/>
    <stop offset="100%" stop-color="#FB7185"/>
  </linearGradient>
  <filter id="shadow" x="-20%" y="-20%" width="140%" height="140%">
    <feDropShadow dx="0" dy="7" stdDeviation="8" flood-color="#020617" flood-opacity="0.55"/>
  </filter>
</defs>
<rect x="3" y="3" width="82" height="82" rx="18" fill="url(#card-bg)" stroke="url(#card-stroke)" stroke-width="1.8" opacity="1" filter="url(#shadow)"/>
<rect x="8" y="8" width="72" height="72" rx="15" fill="#020617" opacity="0.38"/>
<rect x="16" y="10" width="56" height="48" rx="14" fill="#F8FAFC" opacity="0.98"/>
<rect x="16" y="10" width="56" height="48" rx="14" fill="none" stroke="#FFFFFF" stroke-opacity="0.72"/>
<svg x="24" y="13" width="40" height="40" viewBox="0 0 24 24" preserveAspectRatio="xMidYMid meet" fill="#009688" color="#009688"><path d="M12 .0387C5.3729.0384.0003 5.3931 0 11.9988c-.001 6.6066 5.372 11.9628 12 11.9625 6.628.0003 12.001-5.3559 12-11.9625-.0003-6.6057-5.3729-11.9604-12-11.96m-.829 5.4153h7.55l-7.5805 5.3284h5.1828L5.279 18.5436q2.9466-6.5444 5.892-13.0896"/></svg>
<text x="44" y="73" text-anchor="middle" font-family="JetBrains Mono, Consolas, monospace" font-size="8.7" font-weight="800" fill="#CFFAFE">FastAPI</text>
</svg>
