<svg xmlns="http://www.w3.org/2000/svg" width="88" height="88" viewBox="0 0 88 88" role="img" aria-labelledby="title desc">
<title id="title">Flask</title>
<desc id="desc">Rounded square logo card for Flask</desc>
<defs>
  <linearGradient id="card-bg" x1="0" y1="0" x2="1" y2="1">
    <stop offset="0%" stop-color="#111827"/>
    <stop offset="100%" stop-color="#06131B"/>
  </linearGradient>
  <linearGradient id="card-stroke" x1="0" y1="0" x2="1" y2="1">
    <stop offset="0%" stop-color="#22D3EE"/>
    <stop offset="52%" stop-color="#A78BFA"/>
    <stop offset="100%" stop-color="#FB7185"/>
  </linearGradient>
  <filter id="shadow" x="-20%" y="-20%" width="140%" height="140%">
    <feDropShadow dx="0" dy="7" stdDeviation="8" flood-color="#020617" flood-opacity="0.55"/>
  </filter>
</defs>
<rect x="3" y="3" width="82" height="82" rx="20" fill="url(#card-bg)" stroke="url(#card-stroke)" stroke-width="1.4" opacity="0.98" filter="url(#shadow)"/>
<rect x="9" y="9" width="70" height="70" rx="16" fill="#020617" opacity="0.34"/>
<rect x="17" y="10" width="54" height="48" rx="15" fill="#F8FAFC" opacity="0.96"/>
<rect x="17" y="10" width="54" height="48" rx="15" fill="none" stroke="#FFFFFF" stroke-opacity="0.68"/>
<svg x="24" y="13" width="40" height="40" viewBox="0 0 24 24" preserveAspectRatio="xMidYMid meet" fill="#111827" color="#111827"><path d="M10.773 2.878c-.013 1.434.322 4.624.445 5.734l-8.558 3.83c-.56-.959-.98-2.304-1.237-3.38l-.06.027c-.205.09-.406.053-.494-.088l-.011-.018-.82-1.506c-.058-.105-.05-.252.024-.392a.78.78 0 0 1 .358-.331l9.824-4.207c.146-.064.299-.063.4.004.106.062.127.128.13.327Zm.68 7c.523 1.97.675 2.412.832 2.818l-7.263 3.7a19.35 19.35 0 0 1-1.81-2.83l8.24-3.689Zm12.432 8.786h.003c.283.402-.047.657-.153.698l-.947.37c.037.125.035.319-.217.414l-.736.287c-.229.09-.398-.059-.42-.2l-.025-.125c-4.427 1.784-7.94 1.685-10.696.647-1.981-.745-3.576-1.983-4.846-3.379l6.948-3.54c.721 1.431 1.586 2.454 2.509 3.178 2.086 1.638 4.415 1.712 5.793 1.563l-.047-.233c-.015-.077.007-.135.086-.165l.734-.288a.302.302 0 0 1 .342.086l.748-.288a.306.306 0 0 1 .341.086l.583.89Z"/></svg>
<text x="44" y="73" text-anchor="middle" font-family="JetBrains Mono, Consolas, monospace" font-size="8.7" font-weight="800" fill="#CFFAFE">Flask</text>
</svg>
