<svg xmlns="http://www.w3.org/2000/svg" width="88" height="88" viewBox="0 0 88 88" role="img" aria-labelledby="title desc">
<title id="title">Jupyter</title>
<desc id="desc">Rounded square logo card for Jupyter</desc>
<defs>
  <linearGradient id="card-bg" x1="0" y1="0" x2="1" y2="1">
    <stop offset="0%" stop-color="#172033"/>
    <stop offset="54%" stop-color="#0B1F2A"/>
    <stop offset="100%" stop-color="#061F1B"/>
  </linearGradient>
  <linearGradient id="card-stroke" x1="0" y1="0" x2="1" y2="1">
    <stop offset="0%" stop-color="#22D3EE"/>
    <stop offset="52%" stop-color="#A78BFA"/>
    <stop offset="100%" stop-color="#FB7185"/>
  </linearGradient>
  <filter id="shadow" x="-20%" y="-20%" width="140%" height="140%">
    <feDropShadow dx="0" dy="7" stdDeviation="8" flood-color="#020617" flood-opacity="0.55"/>
  </filter>
</defs>
<rect x="3" y="3" width="82" height="82" rx="18" fill="url(#card-bg)" stroke="url(#card-stroke)" stroke-width="1.8" opacity="1" filter="url(#shadow)"/>
<rect x="8" y="8" width="72" height="72" rx="15" fill="#020617" opacity="0.38"/>
<rect x="16" y="10" width="56" height="48" rx="14" fill="#F8FAFC" opacity="0.98"/>
<rect x="16" y="10" width="56" height="48" rx="14" fill="none" stroke="#FFFFFF" stroke-opacity="0.72"/>
<svg x="24" y="13" width="40" height="40" viewBox="0 0 24 24" preserveAspectRatio="xMidYMid meet" fill="#F37626" color="#F37626"><path d="M7.157 22.201A1.784 1.799 0 0 1 5.374 24a1.784 1.799 0 0 1-1.784-1.799 1.784 1.799 0 0 1 1.784-1.799 1.784 1.799 0 0 1 1.783 1.799zM20.582 1.427a1.415 1.427 0 0 1-1.415 1.428 1.415 1.427 0 0 1-1.416-1.428A1.415 1.427 0 0 1 19.167 0a1.415 1.427 0 0 1 1.415 1.427zM4.992 3.336A1.047 1.056 0 0 1 3.946 4.39a1.047 1.056 0 0 1-1.047-1.055A1.047 1.056 0 0 1 3.946 2.28a1.047 1.056 0 0 1 1.046 1.056zm7.336 1.517c3.769 0 7.06 1.38 8.768 3.424a9.363 9.363 0 0 0-3.393-4.547 9.238 9.238 0 0 0-5.377-1.728A9.238 9.238 0 0 0 6.95 3.73a9.363 9.363 0 0 0-3.394 4.547c1.713-2.04 5.004-3.424 8.772-3.424zm.001 13.295c-3.768 0-7.06-1.381-8.768-3.425a9.363 9.363 0 0 0 3.394 4.547A9.238 9.238 0 0 0 12.33 21a9.238 9.238 0 0 0 5.377-1.729 9.363 9.363 0 0 0 3.393-4.547c-1.712 2.044-5.003 3.425-8.772 3.425Z"/></svg>
<text x="44" y="73" text-anchor="middle" font-family="JetBrains Mono, Consolas, monospace" font-size="8.7" font-weight="800" fill="#CFFAFE">Jupyter</text>
</svg>
