<svg xmlns="http://www.w3.org/2000/svg" width="88" height="88" viewBox="0 0 88 88" role="img" aria-labelledby="title desc">
<title id="title">Neo4j</title>
<desc id="desc">Rounded square logo card for Neo4j</desc>
<defs>
  <linearGradient id="card-bg" x1="0" y1="0" x2="1" y2="1">
    <stop offset="0%" stop-color="#111827"/>
    <stop offset="100%" stop-color="#06131B"/>
  </linearGradient>
  <linearGradient id="card-stroke" x1="0" y1="0" x2="1" y2="1">
    <stop offset="0%" stop-color="#22D3EE"/>
    <stop offset="52%" stop-color="#A78BFA"/>
    <stop offset="100%" stop-color="#FB7185"/>
  </linearGradient>
  <filter id="shadow" x="-20%" y="-20%" width="140%" height="140%">
    <feDropShadow dx="0" dy="7" stdDeviation="8" flood-color="#020617" flood-opacity="0.55"/>
  </filter>
</defs>
<rect x="3" y="3" width="82" height="82" rx="20" fill="url(#card-bg)" stroke="url(#card-stroke)" stroke-width="1.4" opacity="0.98" filter="url(#shadow)"/>
<rect x="9" y="9" width="70" height="70" rx="16" fill="#020617" opacity="0.34"/>
<rect x="17" y="10" width="54" height="48" rx="15" fill="#F8FAFC" opacity="0.96"/>
<rect x="17" y="10" width="54" height="48" rx="15" fill="none" stroke="#FFFFFF" stroke-opacity="0.68"/>
<svg x="24" y="13" width="40" height="40" viewBox="0 0 24 24" preserveAspectRatio="xMidYMid meet" fill="#4581C3" color="#4581C3"><path d="M9.629 13.227c-.593 0-1.139.2-1.58.533l-2.892-1.976a2.61 2.61 0 0 0 .101-.711 2.633 2.633 0 0 0-2.629-2.629A2.632 2.632 0 0 0 0 11.073a2.632 2.632 0 0 0 2.629 2.629c.593 0 1.139-.2 1.579-.533L7.1 15.145c-.063.226-.1.465-.1.711 0 .247.037.484.1.711l-2.892 1.976a2.608 2.608 0 0 0-1.579-.533A2.632 2.632 0 0 0 0 20.639a2.632 2.632 0 0 0 2.629 2.629 2.632 2.632 0 0 0 2.629-2.629c0-.247-.037-.485-.101-.711l2.892-1.976c.441.333.987.533 1.58.533a2.633 2.633 0 0 0 2.629-2.629c0-1.45-1.18-2.629-2.629-2.629ZM16.112.732c-4.72 0-7.888 2.748-7.888 8.082v3.802a3.525 3.525 0 0 1 3.071.008v-3.81c0-3.459 1.907-5.237 4.817-5.237s4.817 1.778 4.817 5.237v8.309H24V8.814C24 3.448 20.832.732 16.112.732Z"/></svg>
<text x="44" y="73" text-anchor="middle" font-family="JetBrains Mono, Consolas, monospace" font-size="8.7" font-weight="800" fill="#CFFAFE">Neo4j</text>
</svg>
