<svg xmlns="http://www.w3.org/2000/svg" width="88" height="88" viewBox="0 0 88 88" role="img" aria-labelledby="title desc">
<title id="title">pytest</title>
<desc id="desc">Rounded square logo card for pytest</desc>
<defs>
  <linearGradient id="card-bg" x1="0" y1="0" x2="1" y2="1">
    <stop offset="0%" stop-color="#172033"/>
    <stop offset="54%" stop-color="#0B1F2A"/>
    <stop offset="100%" stop-color="#061F1B"/>
  </linearGradient>
  <linearGradient id="card-stroke" x1="0" y1="0" x2="1" y2="1">
    <stop offset="0%" stop-color="#22D3EE"/>
    <stop offset="52%" stop-color="#A78BFA"/>
    <stop offset="100%" stop-color="#FB7185"/>
  </linearGradient>
  <filter id="shadow" x="-20%" y="-20%" width="140%" height="140%">
    <feDropShadow dx="0" dy="7" stdDeviation="8" flood-color="#020617" flood-opacity="0.55"/>
  </filter>
</defs>
<rect x="3" y="3" width="82" height="82" rx="18" fill="url(#card-bg)" stroke="url(#card-stroke)" stroke-width="1.8" opacity="1" filter="url(#shadow)"/>
<rect x="8" y="8" width="72" height="72" rx="15" fill="#020617" opacity="0.38"/>
<rect x="16" y="10" width="56" height="48" rx="14" fill="#F8FAFC" opacity="0.98"/>
<rect x="16" y="10" width="56" height="48" rx="14" fill="none" stroke="#FFFFFF" stroke-opacity="0.72"/>
<svg x="24" y="13" width="40" height="40" viewBox="0 0 24 24" preserveAspectRatio="xMidYMid meet" fill="#0A9EDC" color="#0A9EDC"><path d="M2.6152 0v.8867h3.8399V0zm5.0215 0v.8867h3.8418V0zm4.957 0v.8867h3.8418V0zm4.9356 0v.8867h3.8418V0zM2.4473 1.8945a.935.935 0 0 0-.9356.9356c0 .517.4185.9375.9356.9375h19.1054c.5171 0 .9356-.4204.9356-.9375a.935.935 0 0 0-.9356-.9356zm.168 2.8477V24H6.455V4.7422zm5.0214 0V20.543h3.8418V4.7422zm4.957 0V15.291h3.8497V4.7422zm4.9356 0v6.4941h3.8418V4.7422z"/></svg>
<text x="44" y="73" text-anchor="middle" font-family="JetBrains Mono, Consolas, monospace" font-size="8.7" font-weight="800" fill="#CFFAFE">pytest</text>
</svg>
