<svg xmlns="http://www.w3.org/2000/svg" width="88" height="88" viewBox="0 0 88 88" role="img" aria-labelledby="title desc">
<title id="title">ROS</title>
<desc id="desc">Rounded square logo card for ROS</desc>
<defs>
  <linearGradient id="card-bg" x1="0" y1="0" x2="1" y2="1">
    <stop offset="0%" stop-color="#172033"/>
    <stop offset="54%" stop-color="#0B1F2A"/>
    <stop offset="100%" stop-color="#061F1B"/>
  </linearGradient>
  <linearGradient id="card-stroke" x1="0" y1="0" x2="1" y2="1">
    <stop offset="0%" stop-color="#22D3EE"/>
    <stop offset="52%" stop-color="#A78BFA"/>
    <stop offset="100%" stop-color="#FB7185"/>
  </linearGradient>
  <filter id="shadow" x="-20%" y="-20%" width="140%" height="140%">
    <feDropShadow dx="0" dy="7" stdDeviation="8" flood-color="#020617" flood-opacity="0.55"/>
  </filter>
</defs>
<rect x="3" y="3" width="82" height="82" rx="18" fill="url(#card-bg)" stroke="url(#card-stroke)" stroke-width="1.8" opacity="1" filter="url(#shadow)"/>
<rect x="8" y="8" width="72" height="72" rx="15" fill="#020617" opacity="0.38"/>
<rect x="16" y="10" width="56" height="48" rx="14" fill="#F8FAFC" opacity="0.98"/>
<rect x="16" y="10" width="56" height="48" rx="14" fill="none" stroke="#FFFFFF" stroke-opacity="0.72"/>
<svg x="24" y="13" width="40" height="40" viewBox="0 0 24 24" preserveAspectRatio="xMidYMid meet" fill="#22314E" color="#22314E"><path d="M2.807 0C1.353 0 .173 1.22.173 2.722c0 1.504 1.18 2.723 2.634 2.723 1.455 0 2.635-1.22 2.635-2.723S4.262 0 2.807 0zM12 0c-1.455 0-2.634 1.22-2.634 2.722 0 1.504 1.18 2.723 2.634 2.723 1.455 0 2.634-1.22 2.634-2.723S13.454 0 12 0zm9.193 0c-1.455 0-2.635 1.22-2.635 2.722 0 1.504 1.18 2.723 2.635 2.723 1.455 0 2.634-1.22 2.634-2.723S22.647 0 21.193 0zM2.807 9.277C1.353 9.277.173 10.497.173 12s1.18 2.722 2.634 2.722c1.455 0 2.635-1.219 2.635-2.722 0-1.504-1.18-2.723-2.635-2.723zm9.193 0c-1.455 0-2.634 1.22-2.634 2.723s1.18 2.722 2.634 2.722c1.455 0 2.634-1.219 2.634-2.722 0-1.504-1.18-2.723-2.634-2.723zm9.193 0c-1.455 0-2.635 1.22-2.635 2.723s1.18 2.722 2.635 2.722c1.455 0 2.634-1.219 2.634-2.722 0-1.504-1.18-2.723-2.634-2.723zM2.807 18.555c-1.454 0-2.634 1.22-2.634 2.722C.173 22.781 1.353 24 2.807 24c1.455 0 2.635-1.22 2.635-2.723s-1.18-2.722-2.635-2.722zm9.193 0c-1.455 0-2.634 1.22-2.634 2.722C9.366 22.781 10.546 24 12 24c1.455 0 2.634-1.22 2.634-2.723s-1.18-2.722-2.634-2.722zm9.193 0c-1.455 0-2.635 1.22-2.635 2.722 0 1.504 1.18 2.723 2.635 2.723 1.455 0 2.634-1.22 2.634-2.723s-1.18-2.722-2.634-2.722z"/></svg>
<text x="44" y="73" text-anchor="middle" font-family="JetBrains Mono, Consolas, monospace" font-size="8.7" font-weight="800" fill="#CFFAFE">ROS</text>
</svg>
