<svg xmlns="http://www.w3.org/2000/svg" width="88" height="88" viewBox="0 0 88 88" role="img" aria-labelledby="title desc">
<title id="title">Tableau</title>
<desc id="desc">Rounded square logo card for Tableau</desc>
<defs>
  <linearGradient id="card-bg" x1="0" y1="0" x2="1" y2="1">
    <stop offset="0%" stop-color="#111827"/>
    <stop offset="100%" stop-color="#06131B"/>
  </linearGradient>
  <linearGradient id="card-stroke" x1="0" y1="0" x2="1" y2="1">
    <stop offset="0%" stop-color="#22D3EE"/>
    <stop offset="52%" stop-color="#A78BFA"/>
    <stop offset="100%" stop-color="#FB7185"/>
  </linearGradient>
  <filter id="shadow" x="-20%" y="-20%" width="140%" height="140%">
    <feDropShadow dx="0" dy="7" stdDeviation="8" flood-color="#020617" flood-opacity="0.55"/>
  </filter>
</defs>
<rect x="3" y="3" width="82" height="82" rx="20" fill="url(#card-bg)" stroke="url(#card-stroke)" stroke-width="1.4" opacity="0.98" filter="url(#shadow)"/>
<rect x="9" y="9" width="70" height="70" rx="16" fill="#020617" opacity="0.34"/>
<rect x="17" y="10" width="54" height="48" rx="15" fill="#F8FAFC" opacity="0.96"/>
<rect x="17" y="10" width="54" height="48" rx="15" fill="none" stroke="#FFFFFF" stroke-opacity="0.68"/>
<svg x="24" y="13" width="40" height="40" viewBox="0 0 256 251" preserveAspectRatio="xMidYMid meet"><path fill="#7099a6" d="M123.929 11.593v11.641h-20.82v7.571h20.82v23.186h8.139V30.805h21.341v-7.571h-21.341V0h-8.139z"/><path fill="#eb912c" d="M55.884 41.121v16.893H24.369v10.599h31.515v34.307h11.688V68.613H99.56V58.014H67.572V24.228H55.884z"/><path fill="#59879b" d="M187.953 41.121v16.893h-31.515v11.12h31.515v33.786h12.161V69.134h31.514v-11.12h-31.514V24.228h-12.161z"/><path fill="#e8762c" d="M120.901 98.661v18.928H85.837v14.101h35.064v37.855h14.196V131.69h35.063v-14.101h-35.063V79.733h-14.196z"/><path fill="#5b6591" d="M224.01 108.219v11.878h-21.341v9.605h21.341v23.707h10.647v-23.707h21.341v-9.605h-21.341V96.39H224.01z"/><path fill="#7099a6" d="M20.821 109.26v11.357H0v8.044h20.821v22.714h8.138v-22.714l21.341-.757v-7.287H28.959V97.904h-8.138z"/><path fill="#c72035" d="M55.884 162.731v16.893H24.369v11.12h31.515v33.786h12.161v-33.786H99.56v-11.12H68.045v-33.786H55.884z"/><path fill="#1f447e" d="M187.953 162.731v16.893h-31.515v10.6h31.515v34.306h12.161v-34.306h31.514v-10.6h-31.514v-33.786h-12.161z"/><path fill="#5b6591" d="M122.936 205.65v11.83h-21.341v9.606h21.341v23.707h10.647v-23.707h21.341v-9.606h-21.341v-23.707h-10.647z"/></svg>
<text x="44" y="73" text-anchor="middle" font-family="JetBrains Mono, Consolas, monospace" font-size="8.7" font-weight="800" fill="#CFFAFE">Tableau</text>
</svg>
