<svg xmlns="http://www.w3.org/2000/svg" width="88" height="88" viewBox="0 0 88 88" role="img" aria-labelledby="title desc">
<title id="title">Vite</title>
<desc id="desc">Rounded square logo card for Vite</desc>
<defs>
  <linearGradient id="card-bg" x1="0" y1="0" x2="1" y2="1">
    <stop offset="0%" stop-color="#172033"/>
    <stop offset="54%" stop-color="#0B1F2A"/>
    <stop offset="100%" stop-color="#061F1B"/>
  </linearGradient>
  <linearGradient id="card-stroke" x1="0" y1="0" x2="1" y2="1">
    <stop offset="0%" stop-color="#22D3EE"/>
    <stop offset="52%" stop-color="#A78BFA"/>
    <stop offset="100%" stop-color="#FB7185"/>
  </linearGradient>
  <filter id="shadow" x="-20%" y="-20%" width="140%" height="140%">
    <feDropShadow dx="0" dy="7" stdDeviation="8" flood-color="#020617" flood-opacity="0.55"/>
  </filter>
</defs>
<rect x="3" y="3" width="82" height="82" rx="18" fill="url(#card-bg)" stroke="url(#card-stroke)" stroke-width="1.8" opacity="1" filter="url(#shadow)"/>
<rect x="8" y="8" width="72" height="72" rx="15" fill="#020617" opacity="0.38"/>
<rect x="16" y="10" width="56" height="48" rx="14" fill="#F8FAFC" opacity="0.98"/>
<rect x="16" y="10" width="56" height="48" rx="14" fill="none" stroke="#FFFFFF" stroke-opacity="0.72"/>
<svg x="24" y="13" width="40" height="40" viewBox="0 0 24 24" preserveAspectRatio="xMidYMid meet" fill="#646CFF" color="#646CFF"><path d="M13.056 23.238a.57.57 0 0 1-1.02-.355v-5.202c0-.63-.512-1.143-1.144-1.143H5.148a.57.57 0 0 1-.464-.903l3.777-5.29c.54-.753 0-1.804-.93-1.804H.57a.574.574 0 0 1-.543-.746.6.6 0 0 1 .08-.157L5.008.78a.57.57 0 0 1 .467-.24h14.589a.57.57 0 0 1 .466.903l-3.778 5.29c-.54.755 0 1.806.93 1.806h5.745c.238 0 .424.138.513.322a.56.56 0 0 1-.063.603z"/></svg>
<text x="44" y="73" text-anchor="middle" font-family="JetBrains Mono, Consolas, monospace" font-size="8.7" font-weight="800" fill="#CFFAFE">Vite</text>
</svg>
