<svg xmlns="http://www.w3.org/2000/svg" width="1600" height="260" viewBox="0 0 1600 260" role="img" aria-labelledby="title desc">
<title id="title">Footer wave</title>
<desc id="desc">Animated editable footer wave</desc>
<defs>
  <linearGradient id="bg" x1="0" y1="0" x2="1" y2="1">
    <stop offset="0%" stop-color="#05070F"/>
    <stop offset="48%" stop-color="#0B1F24"/>
    <stop offset="100%" stop-color="#111827"/>
  </linearGradient>
  <linearGradient id="panelGrad" x1="0" y1="0" x2="1" y2="1">
    <stop offset="0%" stop-color="#10172A" stop-opacity="0.98"/>
    <stop offset="100%" stop-color="#102A35" stop-opacity="0.92"/>
  </linearGradient>
  <linearGradient id="neon" x1="0" y1="0" x2="1" y2="0">
    <stop offset="0%" stop-color="#22D3EE"/>
    <stop offset="45%" stop-color="#C084FC"/>
    <stop offset="100%" stop-color="#FB7185"/>
  </linearGradient>
  <linearGradient id="greenGrad" x1="0" y1="0" x2="1" y2="0">
    <stop offset="0%" stop-color="#2DD4BF"/>
    <stop offset="100%" stop-color="#22D3EE"/>
  </linearGradient>
  <linearGradient id="amberGrad" x1="0" y1="0" x2="1" y2="0">
    <stop offset="0%" stop-color="#FBBF24"/>
    <stop offset="100%" stop-color="#FB7185"/>
  </linearGradient>
  <linearGradient id="glassGrad" x1="0" y1="0" x2="1" y2="1">
    <stop offset="0%" stop-color="#17233C" stop-opacity="0.92"/>
    <stop offset="100%" stop-color="#06131B" stop-opacity="0.86"/>
  </linearGradient>
  <linearGradient id="scanGrad" x1="0" y1="0" x2="0" y2="1">
    <stop offset="0%" stop-color="#22D3EE" stop-opacity="0"/>
    <stop offset="52%" stop-color="#22D3EE" stop-opacity="0.24"/>
    <stop offset="100%" stop-color="#22D3EE" stop-opacity="0"/>
  </linearGradient>
  <radialGradient id="orbGlow" cx="50%" cy="50%" r="50%">
    <stop offset="0%" stop-color="#22D3EE" stop-opacity="0.85"/>
    <stop offset="65%" stop-color="#C084FC" stop-opacity="0.16"/>
    <stop offset="100%" stop-color="#C084FC" stop-opacity="0"/>
  </radialGradient>
  <filter id="softGlow" x="-40%" y="-40%" width="180%" height="180%">
    <feGaussianBlur stdDeviation="6" result="blur"/>
    <feMerge><feMergeNode in="blur"/><feMergeNode in="SourceGraphic"/></feMerge>
  </filter>
  <filter id="cardShadow" x="-30%" y="-30%" width="160%" height="160%">
    <feDropShadow dx="0" dy="12" stdDeviation="16" flood-color="#020617" flood-opacity="0.50"/>
  </filter>
  <pattern id="grid" width="44" height="44" patternUnits="userSpaceOnUse">
    <path d="M 44 0 L 0 0 0 44" fill="none" stroke="#22D3EE" stroke-opacity="0.065" stroke-width="1"/>
  </pattern>
  <pattern id="microGrid" width="12" height="12" patternUnits="userSpaceOnUse">
    <path d="M 12 0 L 0 0 0 12" fill="none" stroke="#2DD4BF" stroke-opacity="0.045" stroke-width="1"/>
  </pattern>
  <style><![CDATA[
    .bg { fill: url(#bg); }
    .grid { fill: url(#grid); opacity: .95; }
    .microGrid { fill: url(#microGrid); opacity: .70; }
    .title { font-family: Inter, ui-sans-serif, system-ui, Segoe UI, Arial, sans-serif; font-weight: 900; letter-spacing: 0; fill: #ECFEFF; }
    .subtitle { font-family: Inter, ui-sans-serif, system-ui, Segoe UI, Arial, sans-serif; font-weight: 700; fill: #22D3EE; }
    .body { font-family: Inter, ui-sans-serif, system-ui, Segoe UI, Arial, sans-serif; fill: #9EB7C7; }
    .mono { font-family: JetBrains Mono, SFMono-Regular, Consolas, Monaco, monospace; fill: #ECFEFF; }
    .label { font-family: JetBrains Mono, SFMono-Regular, Consolas, Monaco, monospace; font-weight: 800; fill: #22D3EE; }
    .muted { fill: #9EB7C7; }
    .tiny { font-size: 18px; }
    .small { font-size: 22px; }
    .medium { font-size: 28px; }
    .large { font-size: 46px; }
    .huge { font-size: 72px; }
    .chip { fill: rgba(15, 23, 42, .78); stroke: #22D3EE; stroke-opacity: .35; }
    .panel { fill: url(#panelGrad); stroke: #22D3EE; stroke-opacity: .22; filter: url(#cardShadow); }
    .glass { fill: url(#glassGrad); stroke: #22D3EE; stroke-opacity: .24; filter: url(#cardShadow); }
    .hairline { stroke: #22D3EE; stroke-opacity: .28; stroke-width: 1.3; fill: none; }
    .faintLine { stroke: #9EB7C7; stroke-opacity: .18; stroke-width: 1; fill: none; }
    .neonStroke { stroke: url(#neon); stroke-width: 3; fill: none; filter: url(#softGlow); }
    .glowText { fill: url(#neon); filter: url(#softGlow); }
    .pulse { animation: pulse 2.8s ease-in-out infinite; transform-origin: center; transform-box: fill-box; }
    .floatA { animation: floatA 8s ease-in-out infinite; transform-box: fill-box; }
    .floatB { animation: floatB 10s ease-in-out infinite; transform-box: fill-box; }
    .spinSlow { animation: spin 24s linear infinite; transform-origin: center; transform-box: fill-box; }
    .spinReverse { animation: spinReverse 32s linear infinite; transform-origin: center; transform-box: fill-box; }
    .dash { fill: none; stroke-dasharray: 16 18; animation: dash 12s linear infinite; }
    .scan { animation: scan 6s ease-in-out infinite; }
    .blink { animation: blink 1.2s steps(2, end) infinite; }
    .bar { transform-origin: left center; transform-box: fill-box; animation: barLoad 3.2s ease-out both; }
    .twinkle { animation: twinkle 3s ease-in-out infinite; }
    .wave { animation: wave 7s ease-in-out infinite alternate; }
    .fadeSlide { animation: fadeSlide 5s ease-in-out infinite; }
    @keyframes pulse { 0%,100% { opacity:.55; transform:scale(1); } 50% { opacity:1; transform:scale(1.055); } }
    @keyframes floatA { 0%,100% { transform:translateY(0px); } 50% { transform:translateY(-14px); } }
    @keyframes floatB { 0%,100% { transform:translateY(0px); } 50% { transform:translateY(12px); } }
    @keyframes spin { from { transform:rotate(0deg); } to { transform:rotate(360deg); } }
    @keyframes spinReverse { from { transform:rotate(360deg); } to { transform:rotate(0deg); } }
    @keyframes dash { to { stroke-dashoffset:-280; } }
    @keyframes scan { 0%,100% { transform:translateY(-120px); opacity:0; } 25%,70% { opacity:.50; } 50% { transform:translateY(740px); opacity:.20; } }
    @keyframes blink { 0%,45% { opacity: 1; } 46%,100% { opacity: 0; } }
    @keyframes barLoad { from { transform:scaleX(.08); } to { transform:scaleX(1); } }
    @keyframes twinkle { 0%,100% { opacity:.25; } 50% { opacity:1; } }
    @keyframes wave { from { transform: translateX(-20px); } to { transform: translateX(20px); } }
    @keyframes fadeSlide { 0%,100% { opacity:.28; transform:translateX(-12px); } 50% { opacity:.75; transform:translateX(12px); } }
    @media (prefers-reduced-motion: reduce) { * { animation: none !important; } }
  ]]></style>
</defs>

<rect width="1600" height="260" fill="#05070F"/>
<rect class="bg" width="1600" height="260" rx="28"/>
<rect class="grid" width="1600" height="260" rx="28"/>
<rect class="microGrid" width="1600" height="260" rx="28"/>
<path d="M0 0 H1600 V126 C1200 96 960 136 608 104 C320 78 192 112 0 78 Z" fill="url(#neon)" opacity="0.055"/>
<path d="M0 140 C352 202 672 100 1088 168 C1312 204 1472 142 1600 178 V260 H0 Z" fill="url(#greenGrad)" opacity="0.05"/>
<g opacity="0.42"><circle class="twinkle" cx="137" cy="83" r="1.6" fill="#C084FC" opacity="0.45" style="animation-delay:0.25s"/><circle class="twinkle" cx="274" cy="166" r="2.3" fill="#2DD4BF" opacity="0.45" style="animation-delay:0.50s"/><circle class="twinkle" cx="411" cy="249" r="1.0" fill="#FB7185" opacity="0.45" style="animation-delay:0.75s"/><circle class="twinkle" cx="548" cy="72" r="1.6" fill="#22D3EE" opacity="0.45" style="animation-delay:1.00s"/><circle class="twinkle" cx="685" cy="155" r="2.3" fill="#C084FC" opacity="0.45" style="animation-delay:1.25s"/><circle class="twinkle" cx="822" cy="238" r="1.0" fill="#2DD4BF" opacity="0.45" style="animation-delay:1.50s"/><circle class="twinkle" cx="959" cy="61" r="1.6" fill="#FB7185" opacity="0.45" style="animation-delay:1.75s"/><circle class="twinkle" cx="1096" cy="144" r="2.3" fill="#22D3EE" opacity="0.45" style="animation-delay:2.00s"/><circle class="twinkle" cx="1233" cy="227" r="1.0" fill="#C084FC" opacity="0.45" style="animation-delay:0.00s"/><circle class="twinkle" cx="1370" cy="50" r="1.6" fill="#2DD4BF" opacity="0.45" style="animation-delay:0.25s"/><circle class="twinkle" cx="1507" cy="133" r="2.3" fill="#FB7185" opacity="0.45" style="animation-delay:0.50s"/><circle class="twinkle" cx="44" cy="216" r="1.0" fill="#22D3EE" opacity="0.45" style="animation-delay:0.75s"/><circle class="twinkle" cx="181" cy="39" r="1.6" fill="#C084FC" opacity="0.45" style="animation-delay:1.00s"/><circle class="twinkle" cx="318" cy="122" r="2.3" fill="#2DD4BF" opacity="0.45" style="animation-delay:1.25s"/><circle class="twinkle" cx="455" cy="205" r="1.0" fill="#FB7185" opacity="0.45" style="animation-delay:1.50s"/><circle class="twinkle" cx="592" cy="28" r="1.6" fill="#22D3EE" opacity="0.45" style="animation-delay:1.75s"/><circle class="twinkle" cx="729" cy="111" r="2.3" fill="#C084FC" opacity="0.45" style="animation-delay:2.00s"/><circle class="twinkle" cx="866" cy="194" r="1.0" fill="#2DD4BF" opacity="0.45" style="animation-delay:0.00s"/><circle class="twinkle" cx="1003" cy="17" r="1.6" fill="#FB7185" opacity="0.45" style="animation-delay:0.25s"/><circle class="twinkle" cx="1140" cy="100" r="2.3" fill="#22D3EE" opacity="0.45" style="animation-delay:0.50s"/><circle class="twinkle" cx="1277" cy="183" r="1.0" fill="#C084FC" opacity="0.45" style="animation-delay:0.75s"/><circle class="twinkle" cx="1414" cy="6" r="1.6" fill="#2DD4BF" opacity="0.45" style="animation-delay:1.00s"/><circle class="twinkle" cx="1551" cy="89" r="2.3" fill="#FB7185" opacity="0.45" style="animation-delay:1.25s"/><circle class="twinkle" cx="88" cy="172" r="1.0" fill="#22D3EE" opacity="0.45" style="animation-delay:1.50s"/><circle class="twinkle" cx="225" cy="255" r="1.6" fill="#C084FC" opacity="0.45" style="animation-delay:1.75s"/><circle class="twinkle" cx="362" cy="78" r="2.3" fill="#2DD4BF" opacity="0.45" style="animation-delay:2.00s"/><circle class="twinkle" cx="499" cy="161" r="1.0" fill="#FB7185" opacity="0.45" style="animation-delay:0.00s"/><circle class="twinkle" cx="636" cy="244" r="1.6" fill="#22D3EE" opacity="0.45" style="animation-delay:0.25s"/><circle class="twinkle" cx="773" cy="67" r="2.3" fill="#C084FC" opacity="0.45" style="animation-delay:0.50s"/><circle class="twinkle" cx="910" cy="150" r="1.0" fill="#2DD4BF" opacity="0.45" style="animation-delay:0.75s"/><circle class="twinkle" cx="1047" cy="233" r="1.6" fill="#FB7185" opacity="0.45" style="animation-delay:1.00s"/><circle class="twinkle" cx="1184" cy="56" r="2.3" fill="#22D3EE" opacity="0.45" style="animation-delay:1.25s"/><circle class="twinkle" cx="1321" cy="139" r="1.0" fill="#C084FC" opacity="0.45" style="animation-delay:1.50s"/><circle class="twinkle" cx="1458" cy="222" r="1.6" fill="#2DD4BF" opacity="0.45" style="animation-delay:1.75s"/><circle class="twinkle" cx="1595" cy="45" r="2.3" fill="#FB7185" opacity="0.45" style="animation-delay:2.00s"/><circle class="twinkle" cx="132" cy="128" r="1.0" fill="#22D3EE" opacity="0.45" style="animation-delay:0.00s"/><circle class="twinkle" cx="269" cy="211" r="1.6" fill="#C084FC" opacity="0.45" style="animation-delay:0.25s"/><circle class="twinkle" cx="406" cy="34" r="2.3" fill="#2DD4BF" opacity="0.45" style="animation-delay:0.50s"/><circle class="twinkle" cx="543" cy="117" r="1.0" fill="#FB7185" opacity="0.45" style="animation-delay:0.75s"/><circle class="twinkle" cx="680" cy="200" r="1.6" fill="#22D3EE" opacity="0.45" style="animation-delay:1.00s"/><circle class="twinkle" cx="817" cy="23" r="2.3" fill="#C084FC" opacity="0.45" style="animation-delay:1.25s"/><circle class="twinkle" cx="954" cy="106" r="1.0" fill="#2DD4BF" opacity="0.45" style="animation-delay:1.50s"/><circle class="twinkle" cx="1091" cy="189" r="1.6" fill="#FB7185" opacity="0.45" style="animation-delay:1.75s"/><circle class="twinkle" cx="1228" cy="12" r="2.3" fill="#22D3EE" opacity="0.45" style="animation-delay:2.00s"/><circle class="twinkle" cx="1365" cy="95" r="1.0" fill="#C084FC" opacity="0.45" style="animation-delay:0.00s"/><circle class="twinkle" cx="1502" cy="178" r="1.6" fill="#2DD4BF" opacity="0.45" style="animation-delay:0.25s"/><circle class="twinkle" cx="39" cy="1" r="2.3" fill="#FB7185" opacity="0.45" style="animation-delay:0.50s"/><circle class="twinkle" cx="176" cy="84" r="1.0" fill="#22D3EE" opacity="0.45" style="animation-delay:0.75s"/><circle class="twinkle" cx="313" cy="167" r="1.6" fill="#C084FC" opacity="0.45" style="animation-delay:1.00s"/><circle class="twinkle" cx="450" cy="250" r="2.3" fill="#2DD4BF" opacity="0.45" style="animation-delay:1.25s"/><circle class="twinkle" cx="587" cy="73" r="1.0" fill="#FB7185" opacity="0.45" style="animation-delay:1.50s"/><circle class="twinkle" cx="724" cy="156" r="1.6" fill="#22D3EE" opacity="0.45" style="animation-delay:1.75s"/><circle class="twinkle" cx="861" cy="239" r="2.3" fill="#C084FC" opacity="0.45" style="animation-delay:2.00s"/><circle class="twinkle" cx="998" cy="62" r="1.0" fill="#2DD4BF" opacity="0.45" style="animation-delay:0.00s"/><circle class="twinkle" cx="1135" cy="145" r="1.6" fill="#FB7185" opacity="0.45" style="animation-delay:0.25s"/></g>
<g id="ambient-circuit-traces"><path d="M72 104 h42 v18 h21" fill="none" stroke="#22D3EE" stroke-opacity="0.13" stroke-width="1.2"/><path d="M185 175 h68 v30 h34" fill="none" stroke="#2DD4BF" stroke-opacity="0.13" stroke-width="1.2"/><path d="M298 246 h94 v42 h47" fill="none" stroke="#C084FC" stroke-opacity="0.13" stroke-width="1.2"/><path d="M411 137 h120 v18 h60" fill="none" stroke="#FBBF24" stroke-opacity="0.13" stroke-width="1.2"/><path d="M524 208 h42 v30 h21" fill="none" stroke="#22D3EE" stroke-opacity="0.13" stroke-width="1.2"/><path d="M637 279 h68 v42 h34" fill="none" stroke="#2DD4BF" stroke-opacity="0.13" stroke-width="1.2"/><path d="M750 170 h94 v18 h47" fill="none" stroke="#C084FC" stroke-opacity="0.13" stroke-width="1.2"/><path d="M863 241 h120 v30 h60" fill="none" stroke="#FBBF24" stroke-opacity="0.13" stroke-width="1.2"/><path d="M976 132 h42 v42 h21" fill="none" stroke="#22D3EE" stroke-opacity="0.13" stroke-width="1.2"/><path d="M1089 203 h68 v18 h34" fill="none" stroke="#2DD4BF" stroke-opacity="0.13" stroke-width="1.2"/><path d="M1202 274 h94 v30 h47" fill="none" stroke="#C084FC" stroke-opacity="0.13" stroke-width="1.2"/><path d="M1315 165 h120 v42 h60" fill="none" stroke="#FBBF24" stroke-opacity="0.13" stroke-width="1.2"/><path d="M1428 236 h42 v18 h21" fill="none" stroke="#22D3EE" stroke-opacity="0.13" stroke-width="1.2"/><path d="M101 127 h68 v30 h34" fill="none" stroke="#2DD4BF" stroke-opacity="0.13" stroke-width="1.2"/></g>
<path d="M28 92 V28 H92 M1508 28 H1572 V92 M28 168 V232 H92 M1508 232 H1572 V168" fill="none" stroke="url(#neon)" stroke-width="4" stroke-linecap="round" opacity="0.62"/>
<rect class="scan" x="0" y="0" width="1600" height="136" fill="url(#scanGrad)" opacity="0.42"/>

<path d="M420 54 H1180" class="hairline" opacity="0.8"/>
<path class="wave" d="M-40 176 C220 106, 380 246, 620 176 C860 106, 1030 246, 1260 176 C1420 130, 1540 130, 1640 156 L1640 260 L-40 260 Z" fill="url(#neon)" opacity="0.26"/>
<path class="wave" d="M-40 202 C240 142, 420 250, 660 198 C880 150, 1050 230, 1268 190 C1440 160, 1540 164, 1640 190 L1640 260 L-40 260 Z" fill="#22D3EE" opacity="0.14" style="animation-duration:10s"/>
<text id="edit-footer-motto" x="800" y="96" text-anchor="middle" class="title" font-size="38">Prototype quickly. Evaluate honestly. Ship responsibly.</text>
<text id="edit-footer-contact" x="800" y="139" text-anchor="middle" class="mono" font-size="18" fill="#9EB7C7">@fishman7337 · Singapore · kunmingaden@gmail.com</text>
<rect x="586" y="160" width="428" height="34" rx="17" fill="rgba(2,6,23,.54)" stroke="#2DD4BF" stroke-opacity="0.25"/>
<text x="800" y="183" text-anchor="middle" class="label" font-size="14" fill="#2DD4BF">research | systems | responsible AI</text>
</svg>
