<svg xmlns="http://www.w3.org/2000/svg" width="1600" height="720" viewBox="0 0 1600 720" role="img" aria-labelledby="title desc">
<title id="title">Project nebula map</title>
<desc id="desc">Animated project constellation showing public GitHub builds</desc>
<defs>
  <linearGradient id="bg" x1="0" y1="0" x2="1" y2="1">
    <stop offset="0%" stop-color="#05070F"/>
    <stop offset="48%" stop-color="#0B1F24"/>
    <stop offset="100%" stop-color="#111827"/>
  </linearGradient>
  <linearGradient id="panelGrad" x1="0" y1="0" x2="1" y2="1">
    <stop offset="0%" stop-color="#10172A" stop-opacity="0.98"/>
    <stop offset="100%" stop-color="#102A35" stop-opacity="0.92"/>
  </linearGradient>
  <linearGradient id="neon" x1="0" y1="0" x2="1" y2="0">
    <stop offset="0%" stop-color="#22D3EE"/>
    <stop offset="45%" stop-color="#C084FC"/>
    <stop offset="100%" stop-color="#FB7185"/>
  </linearGradient>
  <linearGradient id="greenGrad" x1="0" y1="0" x2="1" y2="0">
    <stop offset="0%" stop-color="#2DD4BF"/>
    <stop offset="100%" stop-color="#22D3EE"/>
  </linearGradient>
  <linearGradient id="amberGrad" x1="0" y1="0" x2="1" y2="0">
    <stop offset="0%" stop-color="#FBBF24"/>
    <stop offset="100%" stop-color="#FB7185"/>
  </linearGradient>
  <linearGradient id="glassGrad" x1="0" y1="0" x2="1" y2="1">
    <stop offset="0%" stop-color="#17233C" stop-opacity="0.92"/>
    <stop offset="100%" stop-color="#06131B" stop-opacity="0.86"/>
  </linearGradient>
  <linearGradient id="scanGrad" x1="0" y1="0" x2="0" y2="1">
    <stop offset="0%" stop-color="#22D3EE" stop-opacity="0"/>
    <stop offset="52%" stop-color="#22D3EE" stop-opacity="0.24"/>
    <stop offset="100%" stop-color="#22D3EE" stop-opacity="0"/>
  </linearGradient>
  <radialGradient id="orbGlow" cx="50%" cy="50%" r="50%">
    <stop offset="0%" stop-color="#22D3EE" stop-opacity="0.85"/>
    <stop offset="65%" stop-color="#C084FC" stop-opacity="0.16"/>
    <stop offset="100%" stop-color="#C084FC" stop-opacity="0"/>
  </radialGradient>
  <filter id="softGlow" x="-40%" y="-40%" width="180%" height="180%">
    <feGaussianBlur stdDeviation="6" result="blur"/>
    <feMerge><feMergeNode in="blur"/><feMergeNode in="SourceGraphic"/></feMerge>
  </filter>
  <filter id="cardShadow" x="-30%" y="-30%" width="160%" height="160%">
    <feDropShadow dx="0" dy="12" stdDeviation="16" flood-color="#020617" flood-opacity="0.50"/>
  </filter>
  <pattern id="grid" width="44" height="44" patternUnits="userSpaceOnUse">
    <path d="M 44 0 L 0 0 0 44" fill="none" stroke="#22D3EE" stroke-opacity="0.065" stroke-width="1"/>
  </pattern>
  <pattern id="microGrid" width="12" height="12" patternUnits="userSpaceOnUse">
    <path d="M 12 0 L 0 0 0 12" fill="none" stroke="#2DD4BF" stroke-opacity="0.045" stroke-width="1"/>
  </pattern>
  <style><![CDATA[
    .bg { fill: url(#bg); }
    .grid { fill: url(#grid); opacity: .95; }
    .microGrid { fill: url(#microGrid); opacity: .70; }
    .title { font-family: Inter, ui-sans-serif, system-ui, Segoe UI, Arial, sans-serif; font-weight: 900; letter-spacing: 0; fill: #ECFEFF; }
    .subtitle { font-family: Inter, ui-sans-serif, system-ui, Segoe UI, Arial, sans-serif; font-weight: 700; fill: #22D3EE; }
    .body { font-family: Inter, ui-sans-serif, system-ui, Segoe UI, Arial, sans-serif; fill: #9EB7C7; }
    .mono { font-family: JetBrains Mono, SFMono-Regular, Consolas, Monaco, monospace; fill: #ECFEFF; }
    .label { font-family: JetBrains Mono, SFMono-Regular, Consolas, Monaco, monospace; font-weight: 800; fill: #22D3EE; }
    .muted { fill: #9EB7C7; }
    .tiny { font-size: 18px; }
    .small { font-size: 22px; }
    .medium { font-size: 28px; }
    .large { font-size: 46px; }
    .huge { font-size: 72px; }
    .chip { fill: rgba(15, 23, 42, .78); stroke: #22D3EE; stroke-opacity: .35; }
    .panel { fill: url(#panelGrad); stroke: #22D3EE; stroke-opacity: .22; filter: url(#cardShadow); }
    .glass { fill: url(#glassGrad); stroke: #22D3EE; stroke-opacity: .24; filter: url(#cardShadow); }
    .hairline { stroke: #22D3EE; stroke-opacity: .28; stroke-width: 1.3; fill: none; }
    .faintLine { stroke: #9EB7C7; stroke-opacity: .18; stroke-width: 1; fill: none; }
    .neonStroke { stroke: url(#neon); stroke-width: 3; fill: none; filter: url(#softGlow); }
    .glowText { fill: url(#neon); filter: url(#softGlow); }
    .pulse { animation: pulse 2.8s ease-in-out infinite; transform-origin: center; transform-box: fill-box; }
    .floatA { animation: floatA 8s ease-in-out infinite; transform-box: fill-box; }
    .floatB { animation: floatB 10s ease-in-out infinite; transform-box: fill-box; }
    .spinSlow { animation: spin 24s linear infinite; transform-origin: center; transform-box: fill-box; }
    .spinReverse { animation: spinReverse 32s linear infinite; transform-origin: center; transform-box: fill-box; }
    .dash { fill: none; stroke-dasharray: 16 18; animation: dash 12s linear infinite; }
    .scan { animation: scan 6s ease-in-out infinite; }
    .blink { animation: blink 1.2s steps(2, end) infinite; }
    .bar { transform-origin: left center; transform-box: fill-box; animation: barLoad 3.2s ease-out both; }
    .twinkle { animation: twinkle 3s ease-in-out infinite; }
    .wave { animation: wave 7s ease-in-out infinite alternate; }
    .fadeSlide { animation: fadeSlide 5s ease-in-out infinite; }
    @keyframes pulse { 0%,100% { opacity:.55; transform:scale(1); } 50% { opacity:1; transform:scale(1.055); } }
    @keyframes floatA { 0%,100% { transform:translateY(0px); } 50% { transform:translateY(-14px); } }
    @keyframes floatB { 0%,100% { transform:translateY(0px); } 50% { transform:translateY(12px); } }
    @keyframes spin { from { transform:rotate(0deg); } to { transform:rotate(360deg); } }
    @keyframes spinReverse { from { transform:rotate(360deg); } to { transform:rotate(0deg); } }
    @keyframes dash { to { stroke-dashoffset:-280; } }
    @keyframes scan { 0%,100% { transform:translateY(-120px); opacity:0; } 25%,70% { opacity:.50; } 50% { transform:translateY(740px); opacity:.20; } }
    @keyframes blink { 0%,45% { opacity: 1; } 46%,100% { opacity: 0; } }
    @keyframes barLoad { from { transform:scaleX(.08); } to { transform:scaleX(1); } }
    @keyframes twinkle { 0%,100% { opacity:.25; } 50% { opacity:1; } }
    @keyframes wave { from { transform: translateX(-20px); } to { transform: translateX(20px); } }
    @keyframes fadeSlide { 0%,100% { opacity:.28; transform:translateX(-12px); } 50% { opacity:.75; transform:translateX(12px); } }
    @media (prefers-reduced-motion: reduce) { * { animation: none !important; } }
  ]]></style>
</defs>

<rect width="1600" height="720" fill="#05070F"/>
<rect class="bg" width="1600" height="720" rx="28"/>
<rect class="grid" width="1600" height="720" rx="28"/>
<rect class="microGrid" width="1600" height="720" rx="28"/>
<path d="M0 0 H1600 V126 C1200 96 960 136 608 104 C320 78 192 112 0 78 Z" fill="url(#neon)" opacity="0.055"/>
<path d="M0 600 C352 662 672 560 1088 628 C1312 664 1472 602 1600 638 V720 H0 Z" fill="url(#greenGrad)" opacity="0.05"/>
<g opacity="0.42"><circle class="twinkle" cx="137" cy="83" r="1.6" fill="#C084FC" opacity="0.45" style="animation-delay:0.25s"/><circle class="twinkle" cx="274" cy="166" r="2.3" fill="#2DD4BF" opacity="0.45" style="animation-delay:0.50s"/><circle class="twinkle" cx="411" cy="249" r="1.0" fill="#FB7185" opacity="0.45" style="animation-delay:0.75s"/><circle class="twinkle" cx="548" cy="332" r="1.6" fill="#22D3EE" opacity="0.45" style="animation-delay:1.00s"/><circle class="twinkle" cx="685" cy="415" r="2.3" fill="#C084FC" opacity="0.45" style="animation-delay:1.25s"/><circle class="twinkle" cx="822" cy="498" r="1.0" fill="#2DD4BF" opacity="0.45" style="animation-delay:1.50s"/><circle class="twinkle" cx="959" cy="581" r="1.6" fill="#FB7185" opacity="0.45" style="animation-delay:1.75s"/><circle class="twinkle" cx="1096" cy="664" r="2.3" fill="#22D3EE" opacity="0.45" style="animation-delay:2.00s"/><circle class="twinkle" cx="1233" cy="27" r="1.0" fill="#C084FC" opacity="0.45" style="animation-delay:0.00s"/><circle class="twinkle" cx="1370" cy="110" r="1.6" fill="#2DD4BF" opacity="0.45" style="animation-delay:0.25s"/><circle class="twinkle" cx="1507" cy="193" r="2.3" fill="#FB7185" opacity="0.45" style="animation-delay:0.50s"/><circle class="twinkle" cx="44" cy="276" r="1.0" fill="#22D3EE" opacity="0.45" style="animation-delay:0.75s"/><circle class="twinkle" cx="181" cy="359" r="1.6" fill="#C084FC" opacity="0.45" style="animation-delay:1.00s"/><circle class="twinkle" cx="318" cy="442" r="2.3" fill="#2DD4BF" opacity="0.45" style="animation-delay:1.25s"/><circle class="twinkle" cx="455" cy="525" r="1.0" fill="#FB7185" opacity="0.45" style="animation-delay:1.50s"/><circle class="twinkle" cx="592" cy="608" r="1.6" fill="#22D3EE" opacity="0.45" style="animation-delay:1.75s"/><circle class="twinkle" cx="729" cy="691" r="2.3" fill="#C084FC" opacity="0.45" style="animation-delay:2.00s"/><circle class="twinkle" cx="866" cy="54" r="1.0" fill="#2DD4BF" opacity="0.45" style="animation-delay:0.00s"/><circle class="twinkle" cx="1003" cy="137" r="1.6" fill="#FB7185" opacity="0.45" style="animation-delay:0.25s"/><circle class="twinkle" cx="1140" cy="220" r="2.3" fill="#22D3EE" opacity="0.45" style="animation-delay:0.50s"/><circle class="twinkle" cx="1277" cy="303" r="1.0" fill="#C084FC" opacity="0.45" style="animation-delay:0.75s"/><circle class="twinkle" cx="1414" cy="386" r="1.6" fill="#2DD4BF" opacity="0.45" style="animation-delay:1.00s"/><circle class="twinkle" cx="1551" cy="469" r="2.3" fill="#FB7185" opacity="0.45" style="animation-delay:1.25s"/><circle class="twinkle" cx="88" cy="552" r="1.0" fill="#22D3EE" opacity="0.45" style="animation-delay:1.50s"/><circle class="twinkle" cx="225" cy="635" r="1.6" fill="#C084FC" opacity="0.45" style="animation-delay:1.75s"/><circle class="twinkle" cx="362" cy="718" r="2.3" fill="#2DD4BF" opacity="0.45" style="animation-delay:2.00s"/><circle class="twinkle" cx="499" cy="81" r="1.0" fill="#FB7185" opacity="0.45" style="animation-delay:0.00s"/><circle class="twinkle" cx="636" cy="164" r="1.6" fill="#22D3EE" opacity="0.45" style="animation-delay:0.25s"/><circle class="twinkle" cx="773" cy="247" r="2.3" fill="#C084FC" opacity="0.45" style="animation-delay:0.50s"/><circle class="twinkle" cx="910" cy="330" r="1.0" fill="#2DD4BF" opacity="0.45" style="animation-delay:0.75s"/><circle class="twinkle" cx="1047" cy="413" r="1.6" fill="#FB7185" opacity="0.45" style="animation-delay:1.00s"/><circle class="twinkle" cx="1184" cy="496" r="2.3" fill="#22D3EE" opacity="0.45" style="animation-delay:1.25s"/><circle class="twinkle" cx="1321" cy="579" r="1.0" fill="#C084FC" opacity="0.45" style="animation-delay:1.50s"/><circle class="twinkle" cx="1458" cy="662" r="1.6" fill="#2DD4BF" opacity="0.45" style="animation-delay:1.75s"/><circle class="twinkle" cx="1595" cy="25" r="2.3" fill="#FB7185" opacity="0.45" style="animation-delay:2.00s"/><circle class="twinkle" cx="132" cy="108" r="1.0" fill="#22D3EE" opacity="0.45" style="animation-delay:0.00s"/><circle class="twinkle" cx="269" cy="191" r="1.6" fill="#C084FC" opacity="0.45" style="animation-delay:0.25s"/><circle class="twinkle" cx="406" cy="274" r="2.3" fill="#2DD4BF" opacity="0.45" style="animation-delay:0.50s"/><circle class="twinkle" cx="543" cy="357" r="1.0" fill="#FB7185" opacity="0.45" style="animation-delay:0.75s"/><circle class="twinkle" cx="680" cy="440" r="1.6" fill="#22D3EE" opacity="0.45" style="animation-delay:1.00s"/><circle class="twinkle" cx="817" cy="523" r="2.3" fill="#C084FC" opacity="0.45" style="animation-delay:1.25s"/><circle class="twinkle" cx="954" cy="606" r="1.0" fill="#2DD4BF" opacity="0.45" style="animation-delay:1.50s"/><circle class="twinkle" cx="1091" cy="689" r="1.6" fill="#FB7185" opacity="0.45" style="animation-delay:1.75s"/><circle class="twinkle" cx="1228" cy="52" r="2.3" fill="#22D3EE" opacity="0.45" style="animation-delay:2.00s"/><circle class="twinkle" cx="1365" cy="135" r="1.0" fill="#C084FC" opacity="0.45" style="animation-delay:0.00s"/><circle class="twinkle" cx="1502" cy="218" r="1.6" fill="#2DD4BF" opacity="0.45" style="animation-delay:0.25s"/><circle class="twinkle" cx="39" cy="301" r="2.3" fill="#FB7185" opacity="0.45" style="animation-delay:0.50s"/><circle class="twinkle" cx="176" cy="384" r="1.0" fill="#22D3EE" opacity="0.45" style="animation-delay:0.75s"/><circle class="twinkle" cx="313" cy="467" r="1.6" fill="#C084FC" opacity="0.45" style="animation-delay:1.00s"/><circle class="twinkle" cx="450" cy="550" r="2.3" fill="#2DD4BF" opacity="0.45" style="animation-delay:1.25s"/><circle class="twinkle" cx="587" cy="633" r="1.0" fill="#FB7185" opacity="0.45" style="animation-delay:1.50s"/><circle class="twinkle" cx="724" cy="716" r="1.6" fill="#22D3EE" opacity="0.45" style="animation-delay:1.75s"/><circle class="twinkle" cx="861" cy="79" r="2.3" fill="#C084FC" opacity="0.45" style="animation-delay:2.00s"/><circle class="twinkle" cx="998" cy="162" r="1.0" fill="#2DD4BF" opacity="0.45" style="animation-delay:0.00s"/><circle class="twinkle" cx="1135" cy="245" r="1.6" fill="#FB7185" opacity="0.45" style="animation-delay:0.25s"/></g>
<g id="ambient-circuit-traces"><path d="M72 104 h42 v18 h21" fill="none" stroke="#22D3EE" stroke-opacity="0.13" stroke-width="1.2"/><path d="M185 175 h68 v30 h34" fill="none" stroke="#2DD4BF" stroke-opacity="0.13" stroke-width="1.2"/><path d="M298 246 h94 v42 h47" fill="none" stroke="#C084FC" stroke-opacity="0.13" stroke-width="1.2"/><path d="M411 317 h120 v18 h60" fill="none" stroke="#FBBF24" stroke-opacity="0.13" stroke-width="1.2"/><path d="M524 388 h42 v30 h21" fill="none" stroke="#22D3EE" stroke-opacity="0.13" stroke-width="1.2"/><path d="M637 459 h68 v42 h34" fill="none" stroke="#2DD4BF" stroke-opacity="0.13" stroke-width="1.2"/><path d="M750 530 h94 v18 h47" fill="none" stroke="#C084FC" stroke-opacity="0.13" stroke-width="1.2"/><path d="M863 601 h120 v30 h60" fill="none" stroke="#FBBF24" stroke-opacity="0.13" stroke-width="1.2"/><path d="M976 132 h42 v42 h21" fill="none" stroke="#22D3EE" stroke-opacity="0.13" stroke-width="1.2"/><path d="M1089 203 h68 v18 h34" fill="none" stroke="#2DD4BF" stroke-opacity="0.13" stroke-width="1.2"/><path d="M1202 274 h94 v30 h47" fill="none" stroke="#C084FC" stroke-opacity="0.13" stroke-width="1.2"/><path d="M1315 345 h120 v42 h60" fill="none" stroke="#FBBF24" stroke-opacity="0.13" stroke-width="1.2"/><path d="M1428 416 h42 v18 h21" fill="none" stroke="#22D3EE" stroke-opacity="0.13" stroke-width="1.2"/><path d="M101 487 h68 v30 h34" fill="none" stroke="#2DD4BF" stroke-opacity="0.13" stroke-width="1.2"/></g>
<path d="M28 92 V28 H92 M1508 28 H1572 V92 M28 628 V692 H92 M1508 692 H1572 V628" fill="none" stroke="url(#neon)" stroke-width="4" stroke-linecap="round" opacity="0.62"/>
<rect class="scan" x="0" y="0" width="1600" height="136" fill="url(#scanGrad)" opacity="0.42"/>

<g id="edit-nebula-header">
<rect x="70" y="44" width="192" height="32" rx="16" fill="rgba(2,6,23,.70)" stroke="#2DD4BF" stroke-opacity="0.34"/>
<text id="edit-nebula-code" x="90" y="66" class="label" font-size="14" fill="#2DD4BF">PUBLIC GRAPH</text>
<text id="edit-nebula-title" x="70" y="108" class="title large">Project Nebula</text>
<text id="edit-nebula-subtitle" x="72" y="143" class="body small">A public build map across research, geospatial AI, MLOps, analytics, security, NLP, RL, and dashboards.</text>
<path d="M72 158 H510" class="hairline"/>
</g>
<circle cx="800" cy="380" r="110" fill="url(#orbGlow)" opacity="0.35"/>
<path class="dash" d="M800 380 C527 380, 527 230, 255 230" stroke="#C084FC" stroke-opacity="0.30" stroke-width="2"/>
<path class="dash" d="M800 380 C677 380, 677 205, 555 205" stroke="#22D3EE" stroke-opacity="0.30" stroke-width="2"/>
<path class="dash" d="M800 380 C922 380, 922 205, 1045 205" stroke="#2DD4BF" stroke-opacity="0.30" stroke-width="2"/>
<path class="dash" d="M800 380 C1070 380, 1070 245, 1340 245" stroke="#FBBF24" stroke-opacity="0.30" stroke-width="2"/>
<path class="dash" d="M800 380 C542 380, 542 510, 285 510" stroke="#FB7185" stroke-opacity="0.30" stroke-width="2"/>
<path class="dash" d="M800 380 C680 380, 680 606, 560 606" stroke="#60A5FA" stroke-opacity="0.30" stroke-width="2"/>
<path class="dash" d="M800 380 C927 380, 927 606, 1055 606" stroke="#2DD4BF" stroke-opacity="0.30" stroke-width="2"/>
<path class="dash" d="M800 380 C1062 380, 1062 525, 1325 525" stroke="#C084FC" stroke-opacity="0.30" stroke-width="2"/>
<path class="dash" d="M800 380 C525 380, 525 375, 250 375" stroke="#22D3EE" stroke-opacity="0.30" stroke-width="2"/>
<path class="dash" d="M800 380 C1075 380, 1075 385, 1350 385" stroke="#FBBF24" stroke-opacity="0.30" stroke-width="2"/>
<g id="edit-nebula-core-node" class="pulse">
<circle cx="800" cy="380" r="78" fill="rgba(15,23,42,.94)" stroke="url(#neon)" stroke-width="4"/>
<text id="edit-nebula-core" x="800" y="372" text-anchor="middle" class="title" font-size="32">fishman7337</text>
<text x="800" y="404" text-anchor="middle" class="mono" font-size="17" fill="#9EB7C7">AI portfolio graph</text>
</g>
<g id="edit-project-1" class="floatA" style="animation-delay:0.00s">
<rect x="115" y="176" width="280" height="108" rx="22" fill="rgba(16,26,53,.92)" stroke="#C084FC" stroke-opacity="0.42" filter="url(#cardShadow)"/>
<circle cx="147" cy="208" r="12" fill="#C084FC" opacity="0.85"/>
<text id="edit-project-name-1-1" x="169" y="207" class="title" font-size="18">HQCGAN Research</text>
<text id="edit-project-theme-1" x="169" y="248" class="mono" font-size="14" fill="#C084FC">Quantum AI</text>
<text x="169" y="270" class="body" font-size="12">hybrid-quantum-classical-gan-…</text>
</g>
<g id="edit-project-2" class="floatB" style="animation-delay:0.12s">
<rect x="415" y="151" width="280" height="108" rx="22" fill="rgba(16,26,53,.92)" stroke="#22D3EE" stroke-opacity="0.42" filter="url(#cardShadow)"/>
<circle cx="447" cy="183" r="12" fill="#22D3EE" opacity="0.85"/>
<text id="edit-project-name-2-1" x="469" y="182" class="title" font-size="18">ISR</text>
<text id="edit-project-theme-2" x="469" y="223" class="mono" font-size="14" fill="#22D3EE">Geospatial CV</text>
<text x="469" y="245" class="body" font-size="12">ISR</text>
</g>
<g id="edit-project-3" class="floatA" style="animation-delay:0.24s">
<rect x="895" y="151" width="300" height="108" rx="22" fill="rgba(16,26,53,.92)" stroke="#2DD4BF" stroke-opacity="0.42" filter="url(#cardShadow)"/>
<circle cx="927" cy="183" r="12" fill="#2DD4BF" opacity="0.85"/>
<text id="edit-project-name-3-1" x="949" y="182" class="title" font-size="18">Global Security</text>
<text id="edit-project-name-3-2" x="949" y="202" class="title" font-size="18">Policy Intelligence</text>
<text id="edit-project-theme-3" x="949" y="223" class="mono" font-size="14" fill="#2DD4BF">Policy Intelligence</text>
<text x="949" y="245" class="body" font-size="12">global-security-policy-intell…</text>
</g>
<g id="edit-project-4" class="floatB" style="animation-delay:0.36s">
<rect x="1200" y="191" width="280" height="108" rx="22" fill="rgba(16,26,53,.92)" stroke="#FBBF24" stroke-opacity="0.42" filter="url(#cardShadow)"/>
<circle cx="1232" cy="223" r="12" fill="#FBBF24" opacity="0.85"/>
<text id="edit-project-name-4-1" x="1254" y="222" class="title" font-size="18">VeggieAI</text>
<text id="edit-project-theme-4" x="1254" y="263" class="mono" font-size="14" fill="#FBBF24">MLOps App</text>
<text x="1254" y="285" class="body" font-size="12">sp-daaa-doaa-ca2-vegetable-cl…</text>
</g>
<g id="edit-project-5" class="floatA" style="animation-delay:0.48s">
<rect x="145" y="456" width="280" height="108" rx="22" fill="rgba(16,26,53,.92)" stroke="#FB7185" stroke-opacity="0.42" filter="url(#cardShadow)"/>
<circle cx="177" cy="488" r="12" fill="#FB7185" opacity="0.85"/>
<text id="edit-project-name-5-1" x="199" y="487" class="title" font-size="18">EstateScope AI</text>
<text id="edit-project-theme-5" x="199" y="528" class="mono" font-size="14" fill="#FB7185">Multimodal ML</text>
<text x="199" y="550" class="body" font-size="12">sp-daaa-doaa-ca1-housing-pric…</text>
</g>
<g id="edit-project-6" class="floatB" style="animation-delay:0.60s">
<rect x="420" y="552" width="280" height="108" rx="22" fill="rgba(16,26,53,.92)" stroke="#60A5FA" stroke-opacity="0.42" filter="url(#cardShadow)"/>
<circle cx="452" cy="584" r="12" fill="#60A5FA" opacity="0.85"/>
<text id="edit-project-name-6-1" x="474" y="583" class="title" font-size="18">YubiWatch</text>
<text id="edit-project-theme-6" x="474" y="624" class="mono" font-size="14" fill="#60A5FA">Secure Systems</text>
<text x="474" y="646" class="body" font-size="12">yubikey-secure-endpoint-system</text>
</g>
<g id="edit-project-7" class="floatA" style="animation-delay:0.72s">
<rect x="915" y="552" width="280" height="108" rx="22" fill="rgba(16,26,53,.92)" stroke="#2DD4BF" stroke-opacity="0.42" filter="url(#cardShadow)"/>
<circle cx="947" cy="584" r="12" fill="#2DD4BF" opacity="0.85"/>
<text id="edit-project-name-7-1" x="969" y="583" class="title" font-size="18">Wage Modelling</text>
<text id="edit-project-theme-7" x="969" y="624" class="mono" font-size="14" fill="#2DD4BF">Regression</text>
<text x="969" y="646" class="body" font-size="12">sp-daaa-mai-ca3-wage-modelling</text>
</g>
<g id="edit-project-8" class="floatB" style="animation-delay:0.84s">
<rect x="1185" y="471" width="280" height="108" rx="22" fill="rgba(16,26,53,.92)" stroke="#C084FC" stroke-opacity="0.42" filter="url(#cardShadow)"/>
<circle cx="1217" cy="503" r="12" fill="#C084FC" opacity="0.85"/>
<text id="edit-project-name-8-1" x="1239" y="502" class="title" font-size="18">Movie Sentiment AI</text>
<text id="edit-project-theme-8" x="1239" y="543" class="mono" font-size="14" fill="#C084FC">NLP</text>
<text x="1239" y="565" class="body" font-size="12">sp-daaa-dele-ca1-movie-review…</text>
</g>
<g id="edit-project-9" class="floatA" style="animation-delay:0.96s">
<rect x="100" y="321" width="300" height="108" rx="22" fill="rgba(16,26,53,.92)" stroke="#22D3EE" stroke-opacity="0.42" filter="url(#cardShadow)"/>
<circle cx="132" cy="353" r="12" fill="#22D3EE" opacity="0.85"/>
<text id="edit-project-name-9-1" x="154" y="352" class="title" font-size="18">Reinforcement</text>
<text id="edit-project-name-9-2" x="154" y="372" class="title" font-size="18">Learning Pendulum</text>
<text id="edit-project-theme-9" x="154" y="393" class="mono" font-size="14" fill="#22D3EE">RL</text>
<text x="154" y="415" class="body" font-size="12">sp-daaa-dele-ca2-pendulum-rei…</text>
</g>
<g id="edit-project-10" class="floatB" style="animation-delay:1.08s">
<rect x="1200" y="331" width="300" height="108" rx="22" fill="rgba(16,26,53,.92)" stroke="#FBBF24" stroke-opacity="0.42" filter="url(#cardShadow)"/>
<circle cx="1232" cy="363" r="12" fill="#FBBF24" opacity="0.85"/>
<text id="edit-project-name-10-1" x="1254" y="362" class="title" font-size="18">HDB Price Dashboard</text>
<text id="edit-project-theme-10" x="1254" y="403" class="mono" font-size="14" fill="#FBBF24">Analytics</text>
<text x="1254" y="425" class="body" font-size="12">sp-daaa-davi-ca1-hdb-price-da…</text>
</g>
</svg>
