<svg xmlns="http://www.w3.org/2000/svg" width="1600" height="570" viewBox="0 0 1600 570" role="img" aria-labelledby="title desc">
<title id="title">HQCGAN quantum lab pipeline</title>
<desc id="desc">Animated diagram explaining the HQCGAN research pipeline</desc>
<defs>
  <linearGradient id="bg" x1="0" y1="0" x2="1" y2="1">
    <stop offset="0%" stop-color="#05070F"/>
    <stop offset="48%" stop-color="#0B1F24"/>
    <stop offset="100%" stop-color="#111827"/>
  </linearGradient>
  <linearGradient id="panelGrad" x1="0" y1="0" x2="1" y2="1">
    <stop offset="0%" stop-color="#10172A" stop-opacity="0.98"/>
    <stop offset="100%" stop-color="#102A35" stop-opacity="0.92"/>
  </linearGradient>
  <linearGradient id="neon" x1="0" y1="0" x2="1" y2="0">
    <stop offset="0%" stop-color="#22D3EE"/>
    <stop offset="45%" stop-color="#C084FC"/>
    <stop offset="100%" stop-color="#FB7185"/>
  </linearGradient>
  <linearGradient id="greenGrad" x1="0" y1="0" x2="1" y2="0">
    <stop offset="0%" stop-color="#2DD4BF"/>
    <stop offset="100%" stop-color="#22D3EE"/>
  </linearGradient>
  <linearGradient id="amberGrad" x1="0" y1="0" x2="1" y2="0">
    <stop offset="0%" stop-color="#FBBF24"/>
    <stop offset="100%" stop-color="#FB7185"/>
  </linearGradient>
  <linearGradient id="glassGrad" x1="0" y1="0" x2="1" y2="1">
    <stop offset="0%" stop-color="#17233C" stop-opacity="0.92"/>
    <stop offset="100%" stop-color="#06131B" stop-opacity="0.86"/>
  </linearGradient>
  <linearGradient id="scanGrad" x1="0" y1="0" x2="0" y2="1">
    <stop offset="0%" stop-color="#22D3EE" stop-opacity="0"/>
    <stop offset="52%" stop-color="#22D3EE" stop-opacity="0.24"/>
    <stop offset="100%" stop-color="#22D3EE" stop-opacity="0"/>
  </linearGradient>
  <radialGradient id="orbGlow" cx="50%" cy="50%" r="50%">
    <stop offset="0%" stop-color="#22D3EE" stop-opacity="0.85"/>
    <stop offset="65%" stop-color="#C084FC" stop-opacity="0.16"/>
    <stop offset="100%" stop-color="#C084FC" stop-opacity="0"/>
  </radialGradient>
  <filter id="softGlow" x="-40%" y="-40%" width="180%" height="180%">
    <feGaussianBlur stdDeviation="6" result="blur"/>
    <feMerge><feMergeNode in="blur"/><feMergeNode in="SourceGraphic"/></feMerge>
  </filter>
  <filter id="cardShadow" x="-30%" y="-30%" width="160%" height="160%">
    <feDropShadow dx="0" dy="12" stdDeviation="16" flood-color="#020617" flood-opacity="0.50"/>
  </filter>
  <pattern id="grid" width="44" height="44" patternUnits="userSpaceOnUse">
    <path d="M 44 0 L 0 0 0 44" fill="none" stroke="#22D3EE" stroke-opacity="0.065" stroke-width="1"/>
  </pattern>
  <pattern id="microGrid" width="12" height="12" patternUnits="userSpaceOnUse">
    <path d="M 12 0 L 0 0 0 12" fill="none" stroke="#2DD4BF" stroke-opacity="0.045" stroke-width="1"/>
  </pattern>
  <style><![CDATA[
    .bg { fill: url(#bg); }
    .grid { fill: url(#grid); opacity: .95; }
    .microGrid { fill: url(#microGrid); opacity: .70; }
    .title { font-family: Inter, ui-sans-serif, system-ui, Segoe UI, Arial, sans-serif; font-weight: 900; letter-spacing: 0; fill: #ECFEFF; }
    .subtitle { font-family: Inter, ui-sans-serif, system-ui, Segoe UI, Arial, sans-serif; font-weight: 700; fill: #22D3EE; }
    .body { font-family: Inter, ui-sans-serif, system-ui, Segoe UI, Arial, sans-serif; fill: #9EB7C7; }
    .mono { font-family: JetBrains Mono, SFMono-Regular, Consolas, Monaco, monospace; fill: #ECFEFF; }
    .label { font-family: JetBrains Mono, SFMono-Regular, Consolas, Monaco, monospace; font-weight: 800; fill: #22D3EE; }
    .muted { fill: #9EB7C7; }
    .tiny { font-size: 18px; }
    .small { font-size: 22px; }
    .medium { font-size: 28px; }
    .large { font-size: 46px; }
    .huge { font-size: 72px; }
    .chip { fill: rgba(15, 23, 42, .78); stroke: #22D3EE; stroke-opacity: .35; }
    .panel { fill: url(#panelGrad); stroke: #22D3EE; stroke-opacity: .22; filter: url(#cardShadow); }
    .glass { fill: url(#glassGrad); stroke: #22D3EE; stroke-opacity: .24; filter: url(#cardShadow); }
    .hairline { stroke: #22D3EE; stroke-opacity: .28; stroke-width: 1.3; fill: none; }
    .faintLine { stroke: #9EB7C7; stroke-opacity: .18; stroke-width: 1; fill: none; }
    .neonStroke { stroke: url(#neon); stroke-width: 3; fill: none; filter: url(#softGlow); }
    .glowText { fill: url(#neon); filter: url(#softGlow); }
    .pulse { animation: pulse 2.8s ease-in-out infinite; transform-origin: center; transform-box: fill-box; }
    .floatA { animation: floatA 8s ease-in-out infinite; transform-box: fill-box; }
    .floatB { animation: floatB 10s ease-in-out infinite; transform-box: fill-box; }
    .spinSlow { animation: spin 24s linear infinite; transform-origin: center; transform-box: fill-box; }
    .spinReverse { animation: spinReverse 32s linear infinite; transform-origin: center; transform-box: fill-box; }
    .dash { fill: none; stroke-dasharray: 16 18; animation: dash 12s linear infinite; }
    .scan { animation: scan 6s ease-in-out infinite; }
    .blink { animation: blink 1.2s steps(2, end) infinite; }
    .bar { transform-origin: left center; transform-box: fill-box; animation: barLoad 3.2s ease-out both; }
    .twinkle { animation: twinkle 3s ease-in-out infinite; }
    .wave { animation: wave 7s ease-in-out infinite alternate; }
    .fadeSlide { animation: fadeSlide 5s ease-in-out infinite; }
    @keyframes pulse { 0%,100% { opacity:.55; transform:scale(1); } 50% { opacity:1; transform:scale(1.055); } }
    @keyframes floatA { 0%,100% { transform:translateY(0px); } 50% { transform:translateY(-14px); } }
    @keyframes floatB { 0%,100% { transform:translateY(0px); } 50% { transform:translateY(12px); } }
    @keyframes spin { from { transform:rotate(0deg); } to { transform:rotate(360deg); } }
    @keyframes spinReverse { from { transform:rotate(360deg); } to { transform:rotate(0deg); } }
    @keyframes dash { to { stroke-dashoffset:-280; } }
    @keyframes scan { 0%,100% { transform:translateY(-120px); opacity:0; } 25%,70% { opacity:.50; } 50% { transform:translateY(740px); opacity:.20; } }
    @keyframes blink { 0%,45% { opacity: 1; } 46%,100% { opacity: 0; } }
    @keyframes barLoad { from { transform:scaleX(.08); } to { transform:scaleX(1); } }
    @keyframes twinkle { 0%,100% { opacity:.25; } 50% { opacity:1; } }
    @keyframes wave { from { transform: translateX(-20px); } to { transform: translateX(20px); } }
    @keyframes fadeSlide { 0%,100% { opacity:.28; transform:translateX(-12px); } 50% { opacity:.75; transform:translateX(12px); } }
    @media (prefers-reduced-motion: reduce) { * { animation: none !important; } }
  ]]></style>
</defs>

<rect width="1600" height="570" fill="#05070F"/>
<rect class="bg" width="1600" height="570" rx="28"/>
<rect class="grid" width="1600" height="570" rx="28"/>
<rect class="microGrid" width="1600" height="570" rx="28"/>
<path d="M0 0 H1600 V126 C1200 96 960 136 608 104 C320 78 192 112 0 78 Z" fill="url(#neon)" opacity="0.055"/>
<path d="M0 450 C352 512 672 410 1088 478 C1312 514 1472 452 1600 488 V570 H0 Z" fill="url(#greenGrad)" opacity="0.05"/>
<g opacity="0.42"><circle class="twinkle" cx="137" cy="83" r="1.6" fill="#C084FC" opacity="0.45" style="animation-delay:0.25s"/><circle class="twinkle" cx="274" cy="166" r="2.3" fill="#2DD4BF" opacity="0.45" style="animation-delay:0.50s"/><circle class="twinkle" cx="411" cy="249" r="1.0" fill="#FB7185" opacity="0.45" style="animation-delay:0.75s"/><circle class="twinkle" cx="548" cy="332" r="1.6" fill="#22D3EE" opacity="0.45" style="animation-delay:1.00s"/><circle class="twinkle" cx="685" cy="415" r="2.3" fill="#C084FC" opacity="0.45" style="animation-delay:1.25s"/><circle class="twinkle" cx="822" cy="498" r="1.0" fill="#2DD4BF" opacity="0.45" style="animation-delay:1.50s"/><circle class="twinkle" cx="959" cy="11" r="1.6" fill="#FB7185" opacity="0.45" style="animation-delay:1.75s"/><circle class="twinkle" cx="1096" cy="94" r="2.3" fill="#22D3EE" opacity="0.45" style="animation-delay:2.00s"/><circle class="twinkle" cx="1233" cy="177" r="1.0" fill="#C084FC" opacity="0.45" style="animation-delay:0.00s"/><circle class="twinkle" cx="1370" cy="260" r="1.6" fill="#2DD4BF" opacity="0.45" style="animation-delay:0.25s"/><circle class="twinkle" cx="1507" cy="343" r="2.3" fill="#FB7185" opacity="0.45" style="animation-delay:0.50s"/><circle class="twinkle" cx="44" cy="426" r="1.0" fill="#22D3EE" opacity="0.45" style="animation-delay:0.75s"/><circle class="twinkle" cx="181" cy="509" r="1.6" fill="#C084FC" opacity="0.45" style="animation-delay:1.00s"/><circle class="twinkle" cx="318" cy="22" r="2.3" fill="#2DD4BF" opacity="0.45" style="animation-delay:1.25s"/><circle class="twinkle" cx="455" cy="105" r="1.0" fill="#FB7185" opacity="0.45" style="animation-delay:1.50s"/><circle class="twinkle" cx="592" cy="188" r="1.6" fill="#22D3EE" opacity="0.45" style="animation-delay:1.75s"/><circle class="twinkle" cx="729" cy="271" r="2.3" fill="#C084FC" opacity="0.45" style="animation-delay:2.00s"/><circle class="twinkle" cx="866" cy="354" r="1.0" fill="#2DD4BF" opacity="0.45" style="animation-delay:0.00s"/><circle class="twinkle" cx="1003" cy="437" r="1.6" fill="#FB7185" opacity="0.45" style="animation-delay:0.25s"/><circle class="twinkle" cx="1140" cy="520" r="2.3" fill="#22D3EE" opacity="0.45" style="animation-delay:0.50s"/><circle class="twinkle" cx="1277" cy="33" r="1.0" fill="#C084FC" opacity="0.45" style="animation-delay:0.75s"/><circle class="twinkle" cx="1414" cy="116" r="1.6" fill="#2DD4BF" opacity="0.45" style="animation-delay:1.00s"/><circle class="twinkle" cx="1551" cy="199" r="2.3" fill="#FB7185" opacity="0.45" style="animation-delay:1.25s"/><circle class="twinkle" cx="88" cy="282" r="1.0" fill="#22D3EE" opacity="0.45" style="animation-delay:1.50s"/><circle class="twinkle" cx="225" cy="365" r="1.6" fill="#C084FC" opacity="0.45" style="animation-delay:1.75s"/><circle class="twinkle" cx="362" cy="448" r="2.3" fill="#2DD4BF" opacity="0.45" style="animation-delay:2.00s"/><circle class="twinkle" cx="499" cy="531" r="1.0" fill="#FB7185" opacity="0.45" style="animation-delay:0.00s"/><circle class="twinkle" cx="636" cy="44" r="1.6" fill="#22D3EE" opacity="0.45" style="animation-delay:0.25s"/><circle class="twinkle" cx="773" cy="127" r="2.3" fill="#C084FC" opacity="0.45" style="animation-delay:0.50s"/><circle class="twinkle" cx="910" cy="210" r="1.0" fill="#2DD4BF" opacity="0.45" style="animation-delay:0.75s"/><circle class="twinkle" cx="1047" cy="293" r="1.6" fill="#FB7185" opacity="0.45" style="animation-delay:1.00s"/><circle class="twinkle" cx="1184" cy="376" r="2.3" fill="#22D3EE" opacity="0.45" style="animation-delay:1.25s"/><circle class="twinkle" cx="1321" cy="459" r="1.0" fill="#C084FC" opacity="0.45" style="animation-delay:1.50s"/><circle class="twinkle" cx="1458" cy="542" r="1.6" fill="#2DD4BF" opacity="0.45" style="animation-delay:1.75s"/><circle class="twinkle" cx="1595" cy="55" r="2.3" fill="#FB7185" opacity="0.45" style="animation-delay:2.00s"/><circle class="twinkle" cx="132" cy="138" r="1.0" fill="#22D3EE" opacity="0.45" style="animation-delay:0.00s"/><circle class="twinkle" cx="269" cy="221" r="1.6" fill="#C084FC" opacity="0.45" style="animation-delay:0.25s"/><circle class="twinkle" cx="406" cy="304" r="2.3" fill="#2DD4BF" opacity="0.45" style="animation-delay:0.50s"/><circle class="twinkle" cx="543" cy="387" r="1.0" fill="#FB7185" opacity="0.45" style="animation-delay:0.75s"/><circle class="twinkle" cx="680" cy="470" r="1.6" fill="#22D3EE" opacity="0.45" style="animation-delay:1.00s"/><circle class="twinkle" cx="817" cy="553" r="2.3" fill="#C084FC" opacity="0.45" style="animation-delay:1.25s"/><circle class="twinkle" cx="954" cy="66" r="1.0" fill="#2DD4BF" opacity="0.45" style="animation-delay:1.50s"/><circle class="twinkle" cx="1091" cy="149" r="1.6" fill="#FB7185" opacity="0.45" style="animation-delay:1.75s"/><circle class="twinkle" cx="1228" cy="232" r="2.3" fill="#22D3EE" opacity="0.45" style="animation-delay:2.00s"/><circle class="twinkle" cx="1365" cy="315" r="1.0" fill="#C084FC" opacity="0.45" style="animation-delay:0.00s"/><circle class="twinkle" cx="1502" cy="398" r="1.6" fill="#2DD4BF" opacity="0.45" style="animation-delay:0.25s"/><circle class="twinkle" cx="39" cy="481" r="2.3" fill="#FB7185" opacity="0.45" style="animation-delay:0.50s"/><circle class="twinkle" cx="176" cy="564" r="1.0" fill="#22D3EE" opacity="0.45" style="animation-delay:0.75s"/><circle class="twinkle" cx="313" cy="77" r="1.6" fill="#C084FC" opacity="0.45" style="animation-delay:1.00s"/><circle class="twinkle" cx="450" cy="160" r="2.3" fill="#2DD4BF" opacity="0.45" style="animation-delay:1.25s"/><circle class="twinkle" cx="587" cy="243" r="1.0" fill="#FB7185" opacity="0.45" style="animation-delay:1.50s"/><circle class="twinkle" cx="724" cy="326" r="1.6" fill="#22D3EE" opacity="0.45" style="animation-delay:1.75s"/><circle class="twinkle" cx="861" cy="409" r="2.3" fill="#C084FC" opacity="0.45" style="animation-delay:2.00s"/><circle class="twinkle" cx="998" cy="492" r="1.0" fill="#2DD4BF" opacity="0.45" style="animation-delay:0.00s"/><circle class="twinkle" cx="1135" cy="5" r="1.6" fill="#FB7185" opacity="0.45" style="animation-delay:0.25s"/></g>
<g id="ambient-circuit-traces"><path d="M72 104 h42 v18 h21" fill="none" stroke="#22D3EE" stroke-opacity="0.13" stroke-width="1.2"/><path d="M185 175 h68 v30 h34" fill="none" stroke="#2DD4BF" stroke-opacity="0.13" stroke-width="1.2"/><path d="M298 246 h94 v42 h47" fill="none" stroke="#C084FC" stroke-opacity="0.13" stroke-width="1.2"/><path d="M411 317 h120 v18 h60" fill="none" stroke="#FBBF24" stroke-opacity="0.13" stroke-width="1.2"/><path d="M524 388 h42 v30 h21" fill="none" stroke="#22D3EE" stroke-opacity="0.13" stroke-width="1.2"/><path d="M637 459 h68 v42 h34" fill="none" stroke="#2DD4BF" stroke-opacity="0.13" stroke-width="1.2"/><path d="M750 140 h94 v18 h47" fill="none" stroke="#C084FC" stroke-opacity="0.13" stroke-width="1.2"/><path d="M863 211 h120 v30 h60" fill="none" stroke="#FBBF24" stroke-opacity="0.13" stroke-width="1.2"/><path d="M976 282 h42 v42 h21" fill="none" stroke="#22D3EE" stroke-opacity="0.13" stroke-width="1.2"/><path d="M1089 353 h68 v18 h34" fill="none" stroke="#2DD4BF" stroke-opacity="0.13" stroke-width="1.2"/><path d="M1202 424 h94 v30 h47" fill="none" stroke="#C084FC" stroke-opacity="0.13" stroke-width="1.2"/><path d="M1315 105 h120 v42 h60" fill="none" stroke="#FBBF24" stroke-opacity="0.13" stroke-width="1.2"/><path d="M1428 176 h42 v18 h21" fill="none" stroke="#22D3EE" stroke-opacity="0.13" stroke-width="1.2"/><path d="M101 247 h68 v30 h34" fill="none" stroke="#2DD4BF" stroke-opacity="0.13" stroke-width="1.2"/></g>
<path d="M28 92 V28 H92 M1508 28 H1572 V92 M28 478 V542 H92 M1508 542 H1572 V478" fill="none" stroke="url(#neon)" stroke-width="4" stroke-linecap="round" opacity="0.62"/>
<rect class="scan" x="0" y="0" width="1600" height="136" fill="url(#scanGrad)" opacity="0.42"/>

<g id="edit-quantum-header">
<rect x="70" y="44" width="218" height="32" rx="16" fill="rgba(2,6,23,.70)" stroke="#2DD4BF" stroke-opacity="0.34"/>
<text id="edit-quantum-code" x="90" y="66" class="label" font-size="14" fill="#2DD4BF">RESEARCH TRACE</text>
<text id="edit-quantum-title" x="70" y="108" class="title large">Quantum-Enhanced GANs</text>
<text id="edit-quantum-subtitle" x="72" y="143" class="body small">Comparative Analysis of Classical and Hybrid Quantum-Classical GANs | arXiv:2508.09209</text>
<path d="M72 158 H510" class="hairline"/>
</g>
<g id="edit-quantum-stage-1">
<rect x="88" y="214" width="238" height="140" rx="26" fill="url(#panelGrad)" stroke="#22D3EE" stroke-opacity="0.42" filter="url(#cardShadow)"/>
<text x="110" y="258" class="title" font-size="22">Classical Baseline</text>
<text x="110" y="292" class="mono" font-size="18" fill="#22D3EE">GAN noise prior</text>
<text x="110" y="326" class="body" font-size="16">stage.01 / reproducible</text>
</g>
<path class="dash" d="M346 284 H370" stroke="url(#neon)" stroke-width="4"/>
<polygon points="364,276 382,284 364,292" fill="#22D3EE" opacity="0.8"/>
<g id="edit-quantum-stage-2">
<rect x="390" y="214" width="238" height="140" rx="26" fill="url(#panelGrad)" stroke="#C084FC" stroke-opacity="0.42" filter="url(#cardShadow)"/>
<text x="412" y="258" class="title" font-size="22">Quantum Circuit</text>
<text x="412" y="292" class="mono" font-size="18" fill="#C084FC">3 / 5 / 7 qubits</text>
<text x="412" y="326" class="body" font-size="16">stage.02 / reproducible</text>
</g>
<path class="dash" d="M648 284 H672" stroke="url(#neon)" stroke-width="4"/>
<polygon points="666,276 684,284 666,292" fill="#22D3EE" opacity="0.8"/>
<g id="edit-quantum-stage-3">
<rect x="692" y="214" width="238" height="140" rx="26" fill="url(#panelGrad)" stroke="#FB7185" stroke-opacity="0.42" filter="url(#cardShadow)"/>
<text x="714" y="258" class="title" font-size="22">Latent Prior</text>
<text x="714" y="292" class="mono" font-size="18" fill="#FB7185">Noisy sampling</text>
<text x="714" y="326" class="body" font-size="16">stage.03 / reproducible</text>
</g>
<path class="dash" d="M950 284 H974" stroke="url(#neon)" stroke-width="4"/>
<polygon points="968,276 986,284 968,292" fill="#22D3EE" opacity="0.8"/>
<g id="edit-quantum-stage-4">
<rect x="994" y="214" width="238" height="140" rx="26" fill="url(#panelGrad)" stroke="#2DD4BF" stroke-opacity="0.42" filter="url(#cardShadow)"/>
<text x="1016" y="258" class="title" font-size="22">Generator</text>
<text x="1016" y="292" class="mono" font-size="18" fill="#2DD4BF">Digit synthesis</text>
<text x="1016" y="326" class="body" font-size="16">stage.04 / reproducible</text>
</g>
<path class="dash" d="M1252 284 H1276" stroke="url(#neon)" stroke-width="4"/>
<polygon points="1270,276 1288,284 1270,292" fill="#22D3EE" opacity="0.8"/>
<g id="edit-quantum-stage-5">
<rect x="1296" y="214" width="238" height="140" rx="26" fill="url(#panelGrad)" stroke="#FBBF24" stroke-opacity="0.42" filter="url(#cardShadow)"/>
<text x="1318" y="258" class="title" font-size="22">Evaluation</text>
<text x="1318" y="292" class="mono" font-size="18" fill="#FBBF24">FID / KID</text>
<text x="1318" y="326" class="body" font-size="16">stage.05 / reproducible</text>
</g>
<g id="edit-quantum-circuit-detail">
<rect x="92" y="386" width="660" height="126" rx="24" fill="rgba(2,6,23,.68)" stroke="#C084FC" stroke-opacity="0.28"/>
<line x1="132" y1="418" x2="704" y2="418" stroke="#9EB7C7" stroke-opacity="0.32"/>
<text x="106" y="423" class="mono" font-size="12" fill="#9EB7C7">q0</text>
<g class="pulse" style="animation-delay:0.00s">
<rect x="188" y="408" width="38" height="20" rx="7" fill="rgba(15,23,42,.96)" stroke="#22D3EE" stroke-width="1.5"/>
<text x="207" y="423" text-anchor="middle" class="mono" font-size="10" fill="#22D3EE">R1</text>
</g>
<g class="pulse" style="animation-delay:0.08s">
<rect x="284" y="408" width="38" height="20" rx="7" fill="rgba(15,23,42,.96)" stroke="#C084FC" stroke-width="1.5"/>
<text x="303" y="423" text-anchor="middle" class="mono" font-size="10" fill="#C084FC">R2</text>
</g>
<g class="pulse" style="animation-delay:0.16s">
<rect x="380" y="408" width="38" height="20" rx="7" fill="rgba(15,23,42,.96)" stroke="#FB7185" stroke-width="1.5"/>
<text x="399" y="423" text-anchor="middle" class="mono" font-size="10" fill="#FB7185">R3</text>
</g>
<g class="pulse" style="animation-delay:0.24s">
<rect x="476" y="408" width="38" height="20" rx="7" fill="rgba(15,23,42,.96)" stroke="#2DD4BF" stroke-width="1.5"/>
<text x="495" y="423" text-anchor="middle" class="mono" font-size="10" fill="#2DD4BF">R1</text>
</g>
<g class="pulse" style="animation-delay:0.32s">
<rect x="572" y="408" width="38" height="20" rx="7" fill="rgba(15,23,42,.96)" stroke="#FBBF24" stroke-width="1.5"/>
<text x="591" y="423" text-anchor="middle" class="mono" font-size="10" fill="#FBBF24">R2</text>
</g>
<line x1="132" y1="436" x2="704" y2="436" stroke="#9EB7C7" stroke-opacity="0.32"/>
<text x="106" y="441" class="mono" font-size="12" fill="#9EB7C7">q1</text>
<g class="pulse" style="animation-delay:0.08s">
<rect x="208" y="426" width="38" height="20" rx="7" fill="rgba(15,23,42,.96)" stroke="#C084FC" stroke-width="1.5"/>
<text x="227" y="441" text-anchor="middle" class="mono" font-size="10" fill="#C084FC">R2</text>
</g>
<g class="pulse" style="animation-delay:0.16s">
<rect x="304" y="426" width="38" height="20" rx="7" fill="rgba(15,23,42,.96)" stroke="#FB7185" stroke-width="1.5"/>
<text x="323" y="441" text-anchor="middle" class="mono" font-size="10" fill="#FB7185">R3</text>
</g>
<g class="pulse" style="animation-delay:0.24s">
<rect x="400" y="426" width="38" height="20" rx="7" fill="rgba(15,23,42,.96)" stroke="#2DD4BF" stroke-width="1.5"/>
<text x="419" y="441" text-anchor="middle" class="mono" font-size="10" fill="#2DD4BF">R1</text>
</g>
<g class="pulse" style="animation-delay:0.32s">
<rect x="496" y="426" width="38" height="20" rx="7" fill="rgba(15,23,42,.96)" stroke="#FBBF24" stroke-width="1.5"/>
<text x="515" y="441" text-anchor="middle" class="mono" font-size="10" fill="#FBBF24">R2</text>
</g>
<g class="pulse" style="animation-delay:0.40s">
<rect x="592" y="426" width="38" height="20" rx="7" fill="rgba(15,23,42,.96)" stroke="#22D3EE" stroke-width="1.5"/>
<text x="611" y="441" text-anchor="middle" class="mono" font-size="10" fill="#22D3EE">R3</text>
</g>
<line x1="132" y1="454" x2="704" y2="454" stroke="#9EB7C7" stroke-opacity="0.32"/>
<text x="106" y="459" class="mono" font-size="12" fill="#9EB7C7">q2</text>
<g class="pulse" style="animation-delay:0.16s">
<rect x="188" y="444" width="38" height="20" rx="7" fill="rgba(15,23,42,.96)" stroke="#FB7185" stroke-width="1.5"/>
<text x="207" y="459" text-anchor="middle" class="mono" font-size="10" fill="#FB7185">R3</text>
</g>
<g class="pulse" style="animation-delay:0.24s">
<rect x="284" y="444" width="38" height="20" rx="7" fill="rgba(15,23,42,.96)" stroke="#2DD4BF" stroke-width="1.5"/>
<text x="303" y="459" text-anchor="middle" class="mono" font-size="10" fill="#2DD4BF">R1</text>
</g>
<g class="pulse" style="animation-delay:0.32s">
<rect x="380" y="444" width="38" height="20" rx="7" fill="rgba(15,23,42,.96)" stroke="#FBBF24" stroke-width="1.5"/>
<text x="399" y="459" text-anchor="middle" class="mono" font-size="10" fill="#FBBF24">R2</text>
</g>
<g class="pulse" style="animation-delay:0.40s">
<rect x="476" y="444" width="38" height="20" rx="7" fill="rgba(15,23,42,.96)" stroke="#22D3EE" stroke-width="1.5"/>
<text x="495" y="459" text-anchor="middle" class="mono" font-size="10" fill="#22D3EE">R3</text>
</g>
<g class="pulse" style="animation-delay:0.48s">
<rect x="572" y="444" width="38" height="20" rx="7" fill="rgba(15,23,42,.96)" stroke="#C084FC" stroke-width="1.5"/>
<text x="591" y="459" text-anchor="middle" class="mono" font-size="10" fill="#C084FC">R1</text>
</g>
<line x1="132" y1="472" x2="704" y2="472" stroke="#9EB7C7" stroke-opacity="0.32"/>
<text x="106" y="477" class="mono" font-size="12" fill="#9EB7C7">q3</text>
<g class="pulse" style="animation-delay:0.24s">
<rect x="208" y="462" width="38" height="20" rx="7" fill="rgba(15,23,42,.96)" stroke="#2DD4BF" stroke-width="1.5"/>
<text x="227" y="477" text-anchor="middle" class="mono" font-size="10" fill="#2DD4BF">R1</text>
</g>
<g class="pulse" style="animation-delay:0.32s">
<rect x="304" y="462" width="38" height="20" rx="7" fill="rgba(15,23,42,.96)" stroke="#FBBF24" stroke-width="1.5"/>
<text x="323" y="477" text-anchor="middle" class="mono" font-size="10" fill="#FBBF24">R2</text>
</g>
<g class="pulse" style="animation-delay:0.40s">
<rect x="400" y="462" width="38" height="20" rx="7" fill="rgba(15,23,42,.96)" stroke="#22D3EE" stroke-width="1.5"/>
<text x="419" y="477" text-anchor="middle" class="mono" font-size="10" fill="#22D3EE">R3</text>
</g>
<g class="pulse" style="animation-delay:0.48s">
<rect x="496" y="462" width="38" height="20" rx="7" fill="rgba(15,23,42,.96)" stroke="#C084FC" stroke-width="1.5"/>
<text x="515" y="477" text-anchor="middle" class="mono" font-size="10" fill="#C084FC">R1</text>
</g>
<g class="pulse" style="animation-delay:0.56s">
<rect x="592" y="462" width="38" height="20" rx="7" fill="rgba(15,23,42,.96)" stroke="#FB7185" stroke-width="1.5"/>
<text x="611" y="477" text-anchor="middle" class="mono" font-size="10" fill="#FB7185">R2</text>
</g>
<line x1="132" y1="490" x2="704" y2="490" stroke="#9EB7C7" stroke-opacity="0.32"/>
<text x="106" y="495" class="mono" font-size="12" fill="#9EB7C7">q4</text>
<g class="pulse" style="animation-delay:0.32s">
<rect x="188" y="480" width="38" height="20" rx="7" fill="rgba(15,23,42,.96)" stroke="#FBBF24" stroke-width="1.5"/>
<text x="207" y="495" text-anchor="middle" class="mono" font-size="10" fill="#FBBF24">R2</text>
</g>
<g class="pulse" style="animation-delay:0.40s">
<rect x="284" y="480" width="38" height="20" rx="7" fill="rgba(15,23,42,.96)" stroke="#22D3EE" stroke-width="1.5"/>
<text x="303" y="495" text-anchor="middle" class="mono" font-size="10" fill="#22D3EE">R3</text>
</g>
<g class="pulse" style="animation-delay:0.48s">
<rect x="380" y="480" width="38" height="20" rx="7" fill="rgba(15,23,42,.96)" stroke="#C084FC" stroke-width="1.5"/>
<text x="399" y="495" text-anchor="middle" class="mono" font-size="10" fill="#C084FC">R1</text>
</g>
<g class="pulse" style="animation-delay:0.56s">
<rect x="476" y="480" width="38" height="20" rx="7" fill="rgba(15,23,42,.96)" stroke="#FB7185" stroke-width="1.5"/>
<text x="495" y="495" text-anchor="middle" class="mono" font-size="10" fill="#FB7185">R2</text>
</g>
<g class="pulse" style="animation-delay:0.64s">
<rect x="572" y="480" width="38" height="20" rx="7" fill="rgba(15,23,42,.96)" stroke="#2DD4BF" stroke-width="1.5"/>
<text x="591" y="495" text-anchor="middle" class="mono" font-size="10" fill="#2DD4BF">R3</text>
</g>
</g>
<g id="edit-quantum-notes">
<rect x="806" y="386" width="700" height="126" rx="24" fill="rgba(2,6,23,.68)" stroke="#2DD4BF" stroke-opacity="0.28"/>
<text x="836" y="424" class="subtitle" font-size="23">Research readout</text>
<text id="edit-quantum-result-1" x="836" y="456" class="body" font-size="18">Classical GAN led overall; the 7-qubit HQCGAN remained competitive and</text>
<text id="edit-quantum-result-2" x="836" y="481" class="body" font-size="18">narrowed the gap in later epochs.</text>
<rect x="836" y="490" width="134" height="28" rx="14" fill="rgba(15,23,42,.72)" stroke="#22D3EE" stroke-opacity="0.30"/>
<text x="853" y="509" class="mono" font-size="13" fill="#22D3EE">150 epochs</text>
<rect x="982" y="490" width="194" height="28" rx="14" fill="rgba(15,23,42,.72)" stroke="#C084FC" stroke-opacity="0.30"/>
<text x="999" y="509" class="mono" font-size="13" fill="#C084FC">Binary MNIST 0/1</text>
<rect x="1188" y="490" width="124" height="28" rx="14" fill="rgba(15,23,42,.72)" stroke="#FBBF24" stroke-opacity="0.30"/>
<text x="1205" y="509" class="mono" font-size="13" fill="#FBBF24">FID + KID</text>
<rect x="1324" y="490" width="144" height="28" rx="14" fill="rgba(15,23,42,.72)" stroke="#2DD4BF" stroke-opacity="0.30"/>
<text x="1341" y="509" class="mono" font-size="13" fill="#2DD4BF">Noise-aware</text>
</g>
</svg>
