<svg xmlns="http://www.w3.org/2000/svg" width="1600" height="1060" viewBox="0 0 1600 1060" role="img" aria-labelledby="title desc">
<title id="title">Skill constellation matrix</title>
<desc id="desc">Animated technology and capability matrix</desc>
<defs>
  <linearGradient id="bg" x1="0" y1="0" x2="1" y2="1">
    <stop offset="0%" stop-color="#05070F"/>
    <stop offset="48%" stop-color="#0B1F24"/>
    <stop offset="100%" stop-color="#111827"/>
  </linearGradient>
  <linearGradient id="panelGrad" x1="0" y1="0" x2="1" y2="1">
    <stop offset="0%" stop-color="#10172A" stop-opacity="0.98"/>
    <stop offset="100%" stop-color="#102A35" stop-opacity="0.92"/>
  </linearGradient>
  <linearGradient id="neon" x1="0" y1="0" x2="1" y2="0">
    <stop offset="0%" stop-color="#22D3EE"/>
    <stop offset="45%" stop-color="#C084FC"/>
    <stop offset="100%" stop-color="#FB7185"/>
  </linearGradient>
  <linearGradient id="greenGrad" x1="0" y1="0" x2="1" y2="0">
    <stop offset="0%" stop-color="#2DD4BF"/>
    <stop offset="100%" stop-color="#22D3EE"/>
  </linearGradient>
  <linearGradient id="amberGrad" x1="0" y1="0" x2="1" y2="0">
    <stop offset="0%" stop-color="#FBBF24"/>
    <stop offset="100%" stop-color="#FB7185"/>
  </linearGradient>
  <linearGradient id="glassGrad" x1="0" y1="0" x2="1" y2="1">
    <stop offset="0%" stop-color="#17233C" stop-opacity="0.92"/>
    <stop offset="100%" stop-color="#06131B" stop-opacity="0.86"/>
  </linearGradient>
  <linearGradient id="scanGrad" x1="0" y1="0" x2="0" y2="1">
    <stop offset="0%" stop-color="#22D3EE" stop-opacity="0"/>
    <stop offset="52%" stop-color="#22D3EE" stop-opacity="0.24"/>
    <stop offset="100%" stop-color="#22D3EE" stop-opacity="0"/>
  </linearGradient>
  <radialGradient id="orbGlow" cx="50%" cy="50%" r="50%">
    <stop offset="0%" stop-color="#22D3EE" stop-opacity="0.85"/>
    <stop offset="65%" stop-color="#C084FC" stop-opacity="0.16"/>
    <stop offset="100%" stop-color="#C084FC" stop-opacity="0"/>
  </radialGradient>
  <filter id="softGlow" x="-40%" y="-40%" width="180%" height="180%">
    <feGaussianBlur stdDeviation="6" result="blur"/>
    <feMerge><feMergeNode in="blur"/><feMergeNode in="SourceGraphic"/></feMerge>
  </filter>
  <filter id="cardShadow" x="-30%" y="-30%" width="160%" height="160%">
    <feDropShadow dx="0" dy="12" stdDeviation="16" flood-color="#020617" flood-opacity="0.50"/>
  </filter>
  <pattern id="grid" width="44" height="44" patternUnits="userSpaceOnUse">
    <path d="M 44 0 L 0 0 0 44" fill="none" stroke="#22D3EE" stroke-opacity="0.065" stroke-width="1"/>
  </pattern>
  <pattern id="microGrid" width="12" height="12" patternUnits="userSpaceOnUse">
    <path d="M 12 0 L 0 0 0 12" fill="none" stroke="#2DD4BF" stroke-opacity="0.045" stroke-width="1"/>
  </pattern>
  <style><![CDATA[
    .bg { fill: url(#bg); }
    .grid { fill: url(#grid); opacity: .95; }
    .microGrid { fill: url(#microGrid); opacity: .70; }
    .title { font-family: Inter, ui-sans-serif, system-ui, Segoe UI, Arial, sans-serif; font-weight: 900; letter-spacing: 0; fill: #ECFEFF; }
    .subtitle { font-family: Inter, ui-sans-serif, system-ui, Segoe UI, Arial, sans-serif; font-weight: 700; fill: #22D3EE; }
    .body { font-family: Inter, ui-sans-serif, system-ui, Segoe UI, Arial, sans-serif; fill: #9EB7C7; }
    .mono { font-family: JetBrains Mono, SFMono-Regular, Consolas, Monaco, monospace; fill: #ECFEFF; }
    .label { font-family: JetBrains Mono, SFMono-Regular, Consolas, Monaco, monospace; font-weight: 800; fill: #22D3EE; }
    .muted { fill: #9EB7C7; }
    .tiny { font-size: 18px; }
    .small { font-size: 22px; }
    .medium { font-size: 28px; }
    .large { font-size: 46px; }
    .huge { font-size: 72px; }
    .chip { fill: rgba(15, 23, 42, .78); stroke: #22D3EE; stroke-opacity: .35; }
    .panel { fill: url(#panelGrad); stroke: #22D3EE; stroke-opacity: .22; filter: url(#cardShadow); }
    .glass { fill: url(#glassGrad); stroke: #22D3EE; stroke-opacity: .24; filter: url(#cardShadow); }
    .hairline { stroke: #22D3EE; stroke-opacity: .28; stroke-width: 1.3; fill: none; }
    .faintLine { stroke: #9EB7C7; stroke-opacity: .18; stroke-width: 1; fill: none; }
    .neonStroke { stroke: url(#neon); stroke-width: 3; fill: none; filter: url(#softGlow); }
    .glowText { fill: url(#neon); filter: url(#softGlow); }
    .pulse { animation: pulse 2.8s ease-in-out infinite; transform-origin: center; transform-box: fill-box; }
    .floatA { animation: floatA 8s ease-in-out infinite; transform-box: fill-box; }
    .floatB { animation: floatB 10s ease-in-out infinite; transform-box: fill-box; }
    .spinSlow { animation: spin 24s linear infinite; transform-origin: center; transform-box: fill-box; }
    .spinReverse { animation: spinReverse 32s linear infinite; transform-origin: center; transform-box: fill-box; }
    .dash { fill: none; stroke-dasharray: 16 18; animation: dash 12s linear infinite; }
    .scan { animation: scan 6s ease-in-out infinite; }
    .blink { animation: blink 1.2s steps(2, end) infinite; }
    .bar { transform-origin: left center; transform-box: fill-box; animation: barLoad 3.2s ease-out both; }
    .twinkle { animation: twinkle 3s ease-in-out infinite; }
    .wave { animation: wave 7s ease-in-out infinite alternate; }
    .fadeSlide { animation: fadeSlide 5s ease-in-out infinite; }
    @keyframes pulse { 0%,100% { opacity:.55; transform:scale(1); } 50% { opacity:1; transform:scale(1.055); } }
    @keyframes floatA { 0%,100% { transform:translateY(0px); } 50% { transform:translateY(-14px); } }
    @keyframes floatB { 0%,100% { transform:translateY(0px); } 50% { transform:translateY(12px); } }
    @keyframes spin { from { transform:rotate(0deg); } to { transform:rotate(360deg); } }
    @keyframes spinReverse { from { transform:rotate(360deg); } to { transform:rotate(0deg); } }
    @keyframes dash { to { stroke-dashoffset:-280; } }
    @keyframes scan { 0%,100% { transform:translateY(-120px); opacity:0; } 25%,70% { opacity:.50; } 50% { transform:translateY(740px); opacity:.20; } }
    @keyframes blink { 0%,45% { opacity: 1; } 46%,100% { opacity: 0; } }
    @keyframes barLoad { from { transform:scaleX(.08); } to { transform:scaleX(1); } }
    @keyframes twinkle { 0%,100% { opacity:.25; } 50% { opacity:1; } }
    @keyframes wave { from { transform: translateX(-20px); } to { transform: translateX(20px); } }
    @keyframes fadeSlide { 0%,100% { opacity:.28; transform:translateX(-12px); } 50% { opacity:.75; transform:translateX(12px); } }
    @media (prefers-reduced-motion: reduce) { * { animation: none !important; } }
  ]]></style>
</defs>

<rect width="1600" height="1060" fill="#05070F"/>
<rect class="bg" width="1600" height="1060" rx="28"/>
<rect class="grid" width="1600" height="1060" rx="28"/>
<rect class="microGrid" width="1600" height="1060" rx="28"/>
<path d="M0 0 H1600 V126 C1200 96 960 136 608 104 C320 78 192 112 0 78 Z" fill="url(#neon)" opacity="0.055"/>
<path d="M0 940 C352 1002 672 900 1088 968 C1312 1004 1472 942 1600 978 V1060 H0 Z" fill="url(#greenGrad)" opacity="0.05"/>
<g opacity="0.42"><circle class="twinkle" cx="137" cy="83" r="1.6" fill="#C084FC" opacity="0.45" style="animation-delay:0.25s"/><circle class="twinkle" cx="274" cy="166" r="2.3" fill="#2DD4BF" opacity="0.45" style="animation-delay:0.50s"/><circle class="twinkle" cx="411" cy="249" r="1.0" fill="#FB7185" opacity="0.45" style="animation-delay:0.75s"/><circle class="twinkle" cx="548" cy="332" r="1.6" fill="#22D3EE" opacity="0.45" style="animation-delay:1.00s"/><circle class="twinkle" cx="685" cy="415" r="2.3" fill="#C084FC" opacity="0.45" style="animation-delay:1.25s"/><circle class="twinkle" cx="822" cy="498" r="1.0" fill="#2DD4BF" opacity="0.45" style="animation-delay:1.50s"/><circle class="twinkle" cx="959" cy="581" r="1.6" fill="#FB7185" opacity="0.45" style="animation-delay:1.75s"/><circle class="twinkle" cx="1096" cy="664" r="2.3" fill="#22D3EE" opacity="0.45" style="animation-delay:2.00s"/><circle class="twinkle" cx="1233" cy="747" r="1.0" fill="#C084FC" opacity="0.45" style="animation-delay:0.00s"/><circle class="twinkle" cx="1370" cy="830" r="1.6" fill="#2DD4BF" opacity="0.45" style="animation-delay:0.25s"/><circle class="twinkle" cx="1507" cy="913" r="2.3" fill="#FB7185" opacity="0.45" style="animation-delay:0.50s"/><circle class="twinkle" cx="44" cy="996" r="1.0" fill="#22D3EE" opacity="0.45" style="animation-delay:0.75s"/><circle class="twinkle" cx="181" cy="19" r="1.6" fill="#C084FC" opacity="0.45" style="animation-delay:1.00s"/><circle class="twinkle" cx="318" cy="102" r="2.3" fill="#2DD4BF" opacity="0.45" style="animation-delay:1.25s"/><circle class="twinkle" cx="455" cy="185" r="1.0" fill="#FB7185" opacity="0.45" style="animation-delay:1.50s"/><circle class="twinkle" cx="592" cy="268" r="1.6" fill="#22D3EE" opacity="0.45" style="animation-delay:1.75s"/><circle class="twinkle" cx="729" cy="351" r="2.3" fill="#C084FC" opacity="0.45" style="animation-delay:2.00s"/><circle class="twinkle" cx="866" cy="434" r="1.0" fill="#2DD4BF" opacity="0.45" style="animation-delay:0.00s"/><circle class="twinkle" cx="1003" cy="517" r="1.6" fill="#FB7185" opacity="0.45" style="animation-delay:0.25s"/><circle class="twinkle" cx="1140" cy="600" r="2.3" fill="#22D3EE" opacity="0.45" style="animation-delay:0.50s"/><circle class="twinkle" cx="1277" cy="683" r="1.0" fill="#C084FC" opacity="0.45" style="animation-delay:0.75s"/><circle class="twinkle" cx="1414" cy="766" r="1.6" fill="#2DD4BF" opacity="0.45" style="animation-delay:1.00s"/><circle class="twinkle" cx="1551" cy="849" r="2.3" fill="#FB7185" opacity="0.45" style="animation-delay:1.25s"/><circle class="twinkle" cx="88" cy="932" r="1.0" fill="#22D3EE" opacity="0.45" style="animation-delay:1.50s"/><circle class="twinkle" cx="225" cy="1015" r="1.6" fill="#C084FC" opacity="0.45" style="animation-delay:1.75s"/><circle class="twinkle" cx="362" cy="38" r="2.3" fill="#2DD4BF" opacity="0.45" style="animation-delay:2.00s"/><circle class="twinkle" cx="499" cy="121" r="1.0" fill="#FB7185" opacity="0.45" style="animation-delay:0.00s"/><circle class="twinkle" cx="636" cy="204" r="1.6" fill="#22D3EE" opacity="0.45" style="animation-delay:0.25s"/><circle class="twinkle" cx="773" cy="287" r="2.3" fill="#C084FC" opacity="0.45" style="animation-delay:0.50s"/><circle class="twinkle" cx="910" cy="370" r="1.0" fill="#2DD4BF" opacity="0.45" style="animation-delay:0.75s"/><circle class="twinkle" cx="1047" cy="453" r="1.6" fill="#FB7185" opacity="0.45" style="animation-delay:1.00s"/><circle class="twinkle" cx="1184" cy="536" r="2.3" fill="#22D3EE" opacity="0.45" style="animation-delay:1.25s"/><circle class="twinkle" cx="1321" cy="619" r="1.0" fill="#C084FC" opacity="0.45" style="animation-delay:1.50s"/><circle class="twinkle" cx="1458" cy="702" r="1.6" fill="#2DD4BF" opacity="0.45" style="animation-delay:1.75s"/><circle class="twinkle" cx="1595" cy="785" r="2.3" fill="#FB7185" opacity="0.45" style="animation-delay:2.00s"/><circle class="twinkle" cx="132" cy="868" r="1.0" fill="#22D3EE" opacity="0.45" style="animation-delay:0.00s"/><circle class="twinkle" cx="269" cy="951" r="1.6" fill="#C084FC" opacity="0.45" style="animation-delay:0.25s"/><circle class="twinkle" cx="406" cy="1034" r="2.3" fill="#2DD4BF" opacity="0.45" style="animation-delay:0.50s"/><circle class="twinkle" cx="543" cy="57" r="1.0" fill="#FB7185" opacity="0.45" style="animation-delay:0.75s"/><circle class="twinkle" cx="680" cy="140" r="1.6" fill="#22D3EE" opacity="0.45" style="animation-delay:1.00s"/><circle class="twinkle" cx="817" cy="223" r="2.3" fill="#C084FC" opacity="0.45" style="animation-delay:1.25s"/><circle class="twinkle" cx="954" cy="306" r="1.0" fill="#2DD4BF" opacity="0.45" style="animation-delay:1.50s"/><circle class="twinkle" cx="1091" cy="389" r="1.6" fill="#FB7185" opacity="0.45" style="animation-delay:1.75s"/><circle class="twinkle" cx="1228" cy="472" r="2.3" fill="#22D3EE" opacity="0.45" style="animation-delay:2.00s"/><circle class="twinkle" cx="1365" cy="555" r="1.0" fill="#C084FC" opacity="0.45" style="animation-delay:0.00s"/><circle class="twinkle" cx="1502" cy="638" r="1.6" fill="#2DD4BF" opacity="0.45" style="animation-delay:0.25s"/><circle class="twinkle" cx="39" cy="721" r="2.3" fill="#FB7185" opacity="0.45" style="animation-delay:0.50s"/><circle class="twinkle" cx="176" cy="804" r="1.0" fill="#22D3EE" opacity="0.45" style="animation-delay:0.75s"/><circle class="twinkle" cx="313" cy="887" r="1.6" fill="#C084FC" opacity="0.45" style="animation-delay:1.00s"/><circle class="twinkle" cx="450" cy="970" r="2.3" fill="#2DD4BF" opacity="0.45" style="animation-delay:1.25s"/><circle class="twinkle" cx="587" cy="1053" r="1.0" fill="#FB7185" opacity="0.45" style="animation-delay:1.50s"/><circle class="twinkle" cx="724" cy="76" r="1.6" fill="#22D3EE" opacity="0.45" style="animation-delay:1.75s"/><circle class="twinkle" cx="861" cy="159" r="2.3" fill="#C084FC" opacity="0.45" style="animation-delay:2.00s"/><circle class="twinkle" cx="998" cy="242" r="1.0" fill="#2DD4BF" opacity="0.45" style="animation-delay:0.00s"/><circle class="twinkle" cx="1135" cy="325" r="1.6" fill="#FB7185" opacity="0.45" style="animation-delay:0.25s"/></g>
<g id="ambient-circuit-traces"><path d="M72 104 h42 v18 h21" fill="none" stroke="#22D3EE" stroke-opacity="0.13" stroke-width="1.2"/><path d="M185 175 h68 v30 h34" fill="none" stroke="#2DD4BF" stroke-opacity="0.13" stroke-width="1.2"/><path d="M298 246 h94 v42 h47" fill="none" stroke="#C084FC" stroke-opacity="0.13" stroke-width="1.2"/><path d="M411 317 h120 v18 h60" fill="none" stroke="#FBBF24" stroke-opacity="0.13" stroke-width="1.2"/><path d="M524 388 h42 v30 h21" fill="none" stroke="#22D3EE" stroke-opacity="0.13" stroke-width="1.2"/><path d="M637 459 h68 v42 h34" fill="none" stroke="#2DD4BF" stroke-opacity="0.13" stroke-width="1.2"/><path d="M750 530 h94 v18 h47" fill="none" stroke="#C084FC" stroke-opacity="0.13" stroke-width="1.2"/><path d="M863 601 h120 v30 h60" fill="none" stroke="#FBBF24" stroke-opacity="0.13" stroke-width="1.2"/><path d="M976 672 h42 v42 h21" fill="none" stroke="#22D3EE" stroke-opacity="0.13" stroke-width="1.2"/><path d="M1089 743 h68 v18 h34" fill="none" stroke="#2DD4BF" stroke-opacity="0.13" stroke-width="1.2"/><path d="M1202 814 h94 v30 h47" fill="none" stroke="#C084FC" stroke-opacity="0.13" stroke-width="1.2"/><path d="M1315 885 h120 v42 h60" fill="none" stroke="#FBBF24" stroke-opacity="0.13" stroke-width="1.2"/><path d="M1428 956 h42 v18 h21" fill="none" stroke="#22D3EE" stroke-opacity="0.13" stroke-width="1.2"/><path d="M101 147 h68 v30 h34" fill="none" stroke="#2DD4BF" stroke-opacity="0.13" stroke-width="1.2"/></g>
<path d="M28 92 V28 H92 M1508 28 H1572 V92 M28 968 V1032 H92 M1508 1032 H1572 V968" fill="none" stroke="url(#neon)" stroke-width="4" stroke-linecap="round" opacity="0.62"/>
<rect class="scan" x="0" y="0" width="1600" height="136" fill="url(#scanGrad)" opacity="0.42"/>

<g id="edit-skills-header">
<rect x="70" y="44" width="257" height="32" rx="16" fill="rgba(2,6,23,.70)" stroke="#2DD4BF" stroke-opacity="0.34"/>
<text id="edit-skills-code" x="90" y="66" class="label" font-size="14" fill="#2DD4BF">CAPABILITY MATRIX</text>
<text id="edit-skills-title" x="70" y="108" class="title large">Technical Stack</text>
<text id="edit-skills-subtitle" x="72" y="143" class="body small">A practical stack for reproducible experiments, applied AI products, data systems, and trustworthy deployment.</text>
<path d="M72 158 H510" class="hairline"/>
</g>
<g id="edit-skill-domain-1" class="floatA" style="animation-delay:0.00s">
<rect x="70" y="170" width="470" height="250" rx="28" fill="url(#panelGrad)" stroke="#22D3EE" stroke-opacity="0.36" filter="url(#cardShadow)"/>
<text id="edit-skill-title-1" x="100" y="212" class="title" font-size="27">Machine Learning</text>
<rect class="bar" x="405.0" y="209" width="10.3" height="28" rx="2" fill="#22D3EE" opacity="0.36" style="animation-delay:0.00s"/><rect class="bar" x="420.3" y="198" width="10.3" height="39" rx="2" fill="#22D3EE" opacity="0.49" style="animation-delay:0.04s"/><rect class="bar" x="435.7" y="205" width="10.3" height="32" rx="2" fill="#22D3EE" opacity="0.62" style="animation-delay:0.08s"/><rect class="bar" x="451.0" y="224" width="10.3" height="13" rx="2" fill="#22D3EE" opacity="0.36" style="animation-delay:0.12s"/><rect class="bar" x="466.3" y="200" width="10.3" height="37" rx="2" fill="#22D3EE" opacity="0.49" style="animation-delay:0.16s"/><rect class="bar" x="481.7" y="219" width="10.3" height="18" rx="2" fill="#22D3EE" opacity="0.62" style="animation-delay:0.20s"/>
<rect x="100" y="238" width="188" height="28" rx="14" fill="rgba(2,6,23,.58)" stroke="#22D3EE" stroke-opacity="0.24"/>
<text id="edit-skill-1-1" x="114" y="257" class="mono" font-size="12" fill="#ECFEFF">Python</text>
<rect x="305" y="238" width="188" height="28" rx="14" fill="rgba(2,6,23,.58)" stroke="#22D3EE" stroke-opacity="0.24"/>
<text id="edit-skill-1-2" x="319" y="257" class="mono" font-size="12" fill="#ECFEFF">PyTorch</text>
<rect x="100" y="272" width="188" height="28" rx="14" fill="rgba(2,6,23,.58)" stroke="#22D3EE" stroke-opacity="0.24"/>
<text id="edit-skill-1-3" x="114" y="291" class="mono" font-size="12" fill="#ECFEFF">TensorFlow</text>
<rect x="305" y="272" width="188" height="28" rx="14" fill="rgba(2,6,23,.58)" stroke="#22D3EE" stroke-opacity="0.24"/>
<text id="edit-skill-1-4" x="319" y="291" class="mono" font-size="12" fill="#ECFEFF">Keras</text>
<rect x="100" y="306" width="188" height="28" rx="14" fill="rgba(2,6,23,.58)" stroke="#22D3EE" stroke-opacity="0.24"/>
<text id="edit-skill-1-5" x="114" y="325" class="mono" font-size="12" fill="#ECFEFF">scikit-learn</text>
<rect x="305" y="306" width="188" height="28" rx="14" fill="rgba(2,6,23,.58)" stroke="#22D3EE" stroke-opacity="0.24"/>
<text id="edit-skill-1-6" x="319" y="325" class="mono" font-size="12" fill="#ECFEFF">Jupyter</text>
<rect x="100" y="340" width="188" height="28" rx="14" fill="rgba(2,6,23,.58)" stroke="#22D3EE" stroke-opacity="0.24"/>
<text id="edit-skill-1-7" x="114" y="359" class="mono" font-size="12" fill="#ECFEFF">Evaluation</text>
</g>
<g id="edit-skill-domain-2" class="floatB" style="animation-delay:0.10s">
<rect x="575" y="170" width="470" height="250" rx="28" fill="url(#panelGrad)" stroke="#C084FC" stroke-opacity="0.36" filter="url(#cardShadow)"/>
<text id="edit-skill-title-2" x="605" y="212" class="title" font-size="27">Web + Frontend</text>
<rect class="bar" x="910.0" y="206" width="10.3" height="31" rx="2" fill="#C084FC" opacity="0.36" style="animation-delay:0.00s"/><rect class="bar" x="925.3" y="198" width="10.3" height="39" rx="2" fill="#C084FC" opacity="0.49" style="animation-delay:0.04s"/><rect class="bar" x="940.7" y="203" width="10.3" height="34" rx="2" fill="#C084FC" opacity="0.62" style="animation-delay:0.08s"/><rect class="bar" x="956.0" y="224" width="10.3" height="13" rx="2" fill="#C084FC" opacity="0.36" style="animation-delay:0.12s"/><rect class="bar" x="971.3" y="200" width="10.3" height="37" rx="2" fill="#C084FC" opacity="0.49" style="animation-delay:0.16s"/><rect class="bar" x="986.7" y="219" width="10.3" height="18" rx="2" fill="#C084FC" opacity="0.62" style="animation-delay:0.20s"/>
<rect x="605" y="238" width="188" height="28" rx="14" fill="rgba(2,6,23,.58)" stroke="#C084FC" stroke-opacity="0.24"/>
<text id="edit-skill-2-1" x="619" y="257" class="mono" font-size="12" fill="#ECFEFF">HTML5</text>
<rect x="810" y="238" width="188" height="28" rx="14" fill="rgba(2,6,23,.58)" stroke="#C084FC" stroke-opacity="0.24"/>
<text id="edit-skill-2-2" x="824" y="257" class="mono" font-size="12" fill="#ECFEFF">CSS</text>
<rect x="605" y="272" width="188" height="28" rx="14" fill="rgba(2,6,23,.58)" stroke="#C084FC" stroke-opacity="0.24"/>
<text id="edit-skill-2-3" x="619" y="291" class="mono" font-size="12" fill="#ECFEFF">JavaScript</text>
<rect x="810" y="272" width="188" height="28" rx="14" fill="rgba(2,6,23,.58)" stroke="#C084FC" stroke-opacity="0.24"/>
<text id="edit-skill-2-4" x="824" y="291" class="mono" font-size="12" fill="#ECFEFF">TypeScript</text>
<rect x="605" y="306" width="188" height="28" rx="14" fill="rgba(2,6,23,.58)" stroke="#C084FC" stroke-opacity="0.24"/>
<text id="edit-skill-2-5" x="619" y="325" class="mono" font-size="12" fill="#ECFEFF">React</text>
<rect x="810" y="306" width="188" height="28" rx="14" fill="rgba(2,6,23,.58)" stroke="#C084FC" stroke-opacity="0.24"/>
<text id="edit-skill-2-6" x="824" y="325" class="mono" font-size="12" fill="#ECFEFF">Vue</text>
<rect x="605" y="340" width="188" height="28" rx="14" fill="rgba(2,6,23,.58)" stroke="#C084FC" stroke-opacity="0.24"/>
<text id="edit-skill-2-7" x="619" y="359" class="mono" font-size="12" fill="#ECFEFF">Next.js</text>
<rect x="810" y="340" width="188" height="28" rx="14" fill="rgba(2,6,23,.58)" stroke="#C084FC" stroke-opacity="0.24"/>
<text id="edit-skill-2-8" x="824" y="359" class="mono" font-size="12" fill="#ECFEFF">Node.js</text>
<rect x="605" y="374" width="188" height="28" rx="14" fill="rgba(2,6,23,.58)" stroke="#C084FC" stroke-opacity="0.24"/>
<text id="edit-skill-2-9" x="619" y="393" class="mono" font-size="12" fill="#ECFEFF">Vite</text>
<rect x="810" y="374" width="188" height="28" rx="14" fill="rgba(2,6,23,.58)" stroke="#C084FC" stroke-opacity="0.24"/>
<text id="edit-skill-2-10" x="824" y="393" class="mono" font-size="12" fill="#ECFEFF">Tailwind CSS</text>
</g>
<g id="edit-skill-domain-3" class="floatA" style="animation-delay:0.20s">
<rect x="1080" y="170" width="470" height="250" rx="28" fill="url(#panelGrad)" stroke="#2DD4BF" stroke-opacity="0.36" filter="url(#cardShadow)"/>
<text id="edit-skill-title-3" x="1110" y="212" class="title" font-size="27">Data + Statistics</text>
<rect class="bar" x="1415.0" y="203" width="10.3" height="34" rx="2" fill="#2DD4BF" opacity="0.36" style="animation-delay:0.00s"/><rect class="bar" x="1430.3" y="198" width="10.3" height="39" rx="2" fill="#2DD4BF" opacity="0.49" style="animation-delay:0.04s"/><rect class="bar" x="1445.7" y="201" width="10.3" height="36" rx="2" fill="#2DD4BF" opacity="0.62" style="animation-delay:0.08s"/><rect class="bar" x="1461.0" y="224" width="10.3" height="13" rx="2" fill="#2DD4BF" opacity="0.36" style="animation-delay:0.12s"/><rect class="bar" x="1476.3" y="200" width="10.3" height="37" rx="2" fill="#2DD4BF" opacity="0.49" style="animation-delay:0.16s"/><rect class="bar" x="1491.7" y="219" width="10.3" height="18" rx="2" fill="#2DD4BF" opacity="0.62" style="animation-delay:0.20s"/>
<rect x="1110" y="238" width="188" height="28" rx="14" fill="rgba(2,6,23,.58)" stroke="#2DD4BF" stroke-opacity="0.24"/>
<text id="edit-skill-3-1" x="1124" y="257" class="mono" font-size="12" fill="#ECFEFF">Pandas</text>
<rect x="1315" y="238" width="188" height="28" rx="14" fill="rgba(2,6,23,.58)" stroke="#2DD4BF" stroke-opacity="0.24"/>
<text id="edit-skill-3-2" x="1329" y="257" class="mono" font-size="12" fill="#ECFEFF">NumPy</text>
<rect x="1110" y="272" width="188" height="28" rx="14" fill="rgba(2,6,23,.58)" stroke="#2DD4BF" stroke-opacity="0.24"/>
<text id="edit-skill-3-3" x="1124" y="291" class="mono" font-size="12" fill="#ECFEFF">Matplotlib</text>
<rect x="1315" y="272" width="188" height="28" rx="14" fill="rgba(2,6,23,.58)" stroke="#2DD4BF" stroke-opacity="0.24"/>
<text id="edit-skill-3-4" x="1329" y="291" class="mono" font-size="12" fill="#ECFEFF">Seaborn</text>
<rect x="1110" y="306" width="188" height="28" rx="14" fill="rgba(2,6,23,.58)" stroke="#2DD4BF" stroke-opacity="0.24"/>
<text id="edit-skill-3-5" x="1124" y="325" class="mono" font-size="12" fill="#ECFEFF">Plotly</text>
<rect x="1315" y="306" width="188" height="28" rx="14" fill="rgba(2,6,23,.58)" stroke="#2DD4BF" stroke-opacity="0.24"/>
<text id="edit-skill-3-6" x="1329" y="325" class="mono" font-size="12" fill="#ECFEFF">Dash</text>
<rect x="1110" y="340" width="188" height="28" rx="14" fill="rgba(2,6,23,.58)" stroke="#2DD4BF" stroke-opacity="0.24"/>
<text id="edit-skill-3-7" x="1124" y="359" class="mono" font-size="12" fill="#ECFEFF">Tableau</text>
<rect x="1315" y="340" width="188" height="28" rx="14" fill="rgba(2,6,23,.58)" stroke="#2DD4BF" stroke-opacity="0.24"/>
<text id="edit-skill-3-8" x="1329" y="359" class="mono" font-size="12" fill="#ECFEFF">Power BI</text>
<rect x="1110" y="374" width="188" height="28" rx="14" fill="rgba(2,6,23,.58)" stroke="#2DD4BF" stroke-opacity="0.24"/>
<text id="edit-skill-3-9" x="1124" y="393" class="mono" font-size="12" fill="#ECFEFF">statsmodels</text>
<rect x="1315" y="374" width="188" height="28" rx="14" fill="rgba(2,6,23,.58)" stroke="#2DD4BF" stroke-opacity="0.24"/>
<text id="edit-skill-3-10" x="1329" y="393" class="mono" font-size="12" fill="#ECFEFF">SQL</text>
</g>
<g id="edit-skill-domain-4" class="floatB" style="animation-delay:0.30s">
<rect x="70" y="450" width="470" height="250" rx="28" fill="url(#panelGrad)" stroke="#FBBF24" stroke-opacity="0.36" filter="url(#cardShadow)"/>
<text id="edit-skill-title-4" x="100" y="492" class="title" font-size="27">Vision + Robotics</text>
<rect class="bar" x="405.0" y="480" width="10.3" height="37" rx="2" fill="#FBBF24" opacity="0.36" style="animation-delay:0.00s"/><rect class="bar" x="420.3" y="478" width="10.3" height="39" rx="2" fill="#FBBF24" opacity="0.49" style="animation-delay:0.04s"/><rect class="bar" x="435.7" y="479" width="10.3" height="38" rx="2" fill="#FBBF24" opacity="0.62" style="animation-delay:0.08s"/><rect class="bar" x="451.0" y="504" width="10.3" height="13" rx="2" fill="#FBBF24" opacity="0.36" style="animation-delay:0.12s"/><rect class="bar" x="466.3" y="480" width="10.3" height="37" rx="2" fill="#FBBF24" opacity="0.49" style="animation-delay:0.16s"/><rect class="bar" x="481.7" y="499" width="10.3" height="18" rx="2" fill="#FBBF24" opacity="0.62" style="animation-delay:0.20s"/>
<rect x="100" y="518" width="188" height="28" rx="14" fill="rgba(2,6,23,.58)" stroke="#FBBF24" stroke-opacity="0.24"/>
<text id="edit-skill-4-1" x="114" y="537" class="mono" font-size="12" fill="#ECFEFF">OpenCV</text>
<rect x="305" y="518" width="188" height="28" rx="14" fill="rgba(2,6,23,.58)" stroke="#FBBF24" stroke-opacity="0.24"/>
<text id="edit-skill-4-2" x="319" y="537" class="mono" font-size="12" fill="#ECFEFF">ROS</text>
<rect x="100" y="552" width="188" height="28" rx="14" fill="rgba(2,6,23,.58)" stroke="#FBBF24" stroke-opacity="0.24"/>
<text id="edit-skill-4-3" x="114" y="571" class="mono" font-size="12" fill="#ECFEFF">Sensor Fusion</text>
<rect x="305" y="552" width="188" height="28" rx="14" fill="rgba(2,6,23,.58)" stroke="#FBBF24" stroke-opacity="0.24"/>
<text id="edit-skill-4-4" x="319" y="571" class="mono" font-size="12" fill="#ECFEFF">Remote Sensing</text>
<rect x="100" y="586" width="188" height="28" rx="14" fill="rgba(2,6,23,.58)" stroke="#FBBF24" stroke-opacity="0.24"/>
<text id="edit-skill-4-5" x="114" y="605" class="mono" font-size="12" fill="#ECFEFF">Satellite Imagery</text>
<rect x="305" y="586" width="188" height="28" rx="14" fill="rgba(2,6,23,.58)" stroke="#FBBF24" stroke-opacity="0.24"/>
<text id="edit-skill-4-6" x="319" y="605" class="mono" font-size="12" fill="#ECFEFF">Feature Engineering</text>
</g>
<g id="edit-skill-domain-5" class="floatA" style="animation-delay:0.40s">
<rect x="575" y="450" width="470" height="250" rx="28" fill="url(#panelGrad)" stroke="#FB7185" stroke-opacity="0.36" filter="url(#cardShadow)"/>
<text id="edit-skill-title-5" x="605" y="492" class="title" font-size="27">Quantum AI</text>
<rect class="bar" x="910.0" y="477" width="10.3" height="40" rx="2" fill="#FB7185" opacity="0.36" style="animation-delay:0.00s"/><rect class="bar" x="925.3" y="478" width="10.3" height="39" rx="2" fill="#FB7185" opacity="0.49" style="animation-delay:0.04s"/><rect class="bar" x="940.7" y="477" width="10.3" height="40" rx="2" fill="#FB7185" opacity="0.62" style="animation-delay:0.08s"/><rect class="bar" x="956.0" y="504" width="10.3" height="13" rx="2" fill="#FB7185" opacity="0.36" style="animation-delay:0.12s"/><rect class="bar" x="971.3" y="480" width="10.3" height="37" rx="2" fill="#FB7185" opacity="0.49" style="animation-delay:0.16s"/><rect class="bar" x="986.7" y="499" width="10.3" height="18" rx="2" fill="#FB7185" opacity="0.62" style="animation-delay:0.20s"/>
<rect x="605" y="518" width="188" height="28" rx="14" fill="rgba(2,6,23,.58)" stroke="#FB7185" stroke-opacity="0.24"/>
<text id="edit-skill-5-1" x="619" y="537" class="mono" font-size="12" fill="#ECFEFF">Qiskit</text>
<rect x="810" y="518" width="188" height="28" rx="14" fill="rgba(2,6,23,.58)" stroke="#FB7185" stroke-opacity="0.24"/>
<text id="edit-skill-5-2" x="824" y="537" class="mono" font-size="12" fill="#ECFEFF">PennyLane</text>
<rect x="605" y="552" width="188" height="28" rx="14" fill="rgba(2,6,23,.58)" stroke="#FB7185" stroke-opacity="0.24"/>
<text id="edit-skill-5-3" x="619" y="571" class="mono" font-size="12" fill="#ECFEFF">HQCGANs</text>
<rect x="810" y="552" width="188" height="28" rx="14" fill="rgba(2,6,23,.58)" stroke="#FB7185" stroke-opacity="0.24"/>
<text id="edit-skill-5-4" x="824" y="571" class="mono" font-size="12" fill="#ECFEFF">Quantum Circuits</text>
<rect x="605" y="586" width="188" height="28" rx="14" fill="rgba(2,6,23,.58)" stroke="#FB7185" stroke-opacity="0.24"/>
<text id="edit-skill-5-5" x="619" y="605" class="mono" font-size="12" fill="#ECFEFF">NISQ Thinking</text>
<rect x="810" y="586" width="188" height="28" rx="14" fill="rgba(2,6,23,.58)" stroke="#FB7185" stroke-opacity="0.24"/>
<text id="edit-skill-5-6" x="824" y="605" class="mono" font-size="12" fill="#ECFEFF">FID/KID</text>
<rect x="605" y="620" width="188" height="28" rx="14" fill="rgba(2,6,23,.58)" stroke="#FB7185" stroke-opacity="0.24"/>
<text id="edit-skill-5-7" x="619" y="639" class="mono" font-size="12" fill="#ECFEFF">AerSimulator</text>
</g>
<g id="edit-skill-domain-6" class="floatB" style="animation-delay:0.50s">
<rect x="1080" y="450" width="470" height="250" rx="28" fill="url(#panelGrad)" stroke="#60A5FA" stroke-opacity="0.36" filter="url(#cardShadow)"/>
<text id="edit-skill-title-6" x="1110" y="492" class="title" font-size="27">Systems + Cloud</text>
<rect class="bar" x="1415.0" y="506" width="10.3" height="11" rx="2" fill="#60A5FA" opacity="0.36" style="animation-delay:0.00s"/><rect class="bar" x="1430.3" y="478" width="10.3" height="39" rx="2" fill="#60A5FA" opacity="0.49" style="animation-delay:0.04s"/><rect class="bar" x="1445.7" y="507" width="10.3" height="10" rx="2" fill="#60A5FA" opacity="0.62" style="animation-delay:0.08s"/><rect class="bar" x="1461.0" y="504" width="10.3" height="13" rx="2" fill="#60A5FA" opacity="0.36" style="animation-delay:0.12s"/><rect class="bar" x="1476.3" y="480" width="10.3" height="37" rx="2" fill="#60A5FA" opacity="0.49" style="animation-delay:0.16s"/><rect class="bar" x="1491.7" y="499" width="10.3" height="18" rx="2" fill="#60A5FA" opacity="0.62" style="animation-delay:0.20s"/>
<rect x="1110" y="518" width="188" height="28" rx="14" fill="rgba(2,6,23,.58)" stroke="#60A5FA" stroke-opacity="0.24"/>
<text id="edit-skill-6-1" x="1124" y="537" class="mono" font-size="12" fill="#ECFEFF">Flask</text>
<rect x="1315" y="518" width="188" height="28" rx="14" fill="rgba(2,6,23,.58)" stroke="#60A5FA" stroke-opacity="0.24"/>
<text id="edit-skill-6-2" x="1329" y="537" class="mono" font-size="12" fill="#ECFEFF">FastAPI</text>
<rect x="1110" y="552" width="188" height="28" rx="14" fill="rgba(2,6,23,.58)" stroke="#60A5FA" stroke-opacity="0.24"/>
<text id="edit-skill-6-3" x="1124" y="571" class="mono" font-size="12" fill="#ECFEFF">Docker</text>
<rect x="1315" y="552" width="188" height="28" rx="14" fill="rgba(2,6,23,.58)" stroke="#60A5FA" stroke-opacity="0.24"/>
<text id="edit-skill-6-4" x="1329" y="571" class="mono" font-size="12" fill="#ECFEFF">Kubernetes</text>
<rect x="1110" y="586" width="188" height="28" rx="14" fill="rgba(2,6,23,.58)" stroke="#60A5FA" stroke-opacity="0.24"/>
<text id="edit-skill-6-5" x="1124" y="605" class="mono" font-size="12" fill="#ECFEFF">AWS</text>
<rect x="1315" y="586" width="188" height="28" rx="14" fill="rgba(2,6,23,.58)" stroke="#60A5FA" stroke-opacity="0.24"/>
<text id="edit-skill-6-6" x="1329" y="605" class="mono" font-size="12" fill="#ECFEFF">GCP</text>
<rect x="1110" y="620" width="188" height="28" rx="14" fill="rgba(2,6,23,.58)" stroke="#60A5FA" stroke-opacity="0.24"/>
<text id="edit-skill-6-7" x="1124" y="639" class="mono" font-size="12" fill="#ECFEFF">GitHub Actions</text>
<rect x="1315" y="620" width="188" height="28" rx="14" fill="rgba(2,6,23,.58)" stroke="#60A5FA" stroke-opacity="0.24"/>
<text id="edit-skill-6-8" x="1329" y="639" class="mono" font-size="12" fill="#ECFEFF">pytest</text>
</g>
<g id="edit-skill-domain-7" class="floatA" style="animation-delay:0.60s">
<rect x="70" y="730" width="470" height="250" rx="28" fill="url(#panelGrad)" stroke="#22D3EE" stroke-opacity="0.36" filter="url(#cardShadow)"/>
<text id="edit-skill-title-7" x="100" y="772" class="title" font-size="27">Security + Graphs</text>
<rect class="bar" x="405.0" y="783" width="10.3" height="14" rx="2" fill="#22D3EE" opacity="0.36" style="animation-delay:0.00s"/><rect class="bar" x="420.3" y="758" width="10.3" height="39" rx="2" fill="#22D3EE" opacity="0.49" style="animation-delay:0.04s"/><rect class="bar" x="435.7" y="785" width="10.3" height="12" rx="2" fill="#22D3EE" opacity="0.62" style="animation-delay:0.08s"/><rect class="bar" x="451.0" y="784" width="10.3" height="13" rx="2" fill="#22D3EE" opacity="0.36" style="animation-delay:0.12s"/><rect class="bar" x="466.3" y="760" width="10.3" height="37" rx="2" fill="#22D3EE" opacity="0.49" style="animation-delay:0.16s"/><rect class="bar" x="481.7" y="779" width="10.3" height="18" rx="2" fill="#22D3EE" opacity="0.62" style="animation-delay:0.20s"/>
<rect x="100" y="798" width="188" height="28" rx="14" fill="rgba(2,6,23,.58)" stroke="#22D3EE" stroke-opacity="0.24"/>
<text id="edit-skill-7-1" x="114" y="817" class="mono" font-size="12" fill="#ECFEFF">Neo4j</text>
<rect x="305" y="798" width="188" height="28" rx="14" fill="rgba(2,6,23,.58)" stroke="#22D3EE" stroke-opacity="0.24"/>
<text id="edit-skill-7-2" x="319" y="817" class="mono" font-size="12" fill="#ECFEFF">Rust</text>
<rect x="100" y="832" width="188" height="28" rx="14" fill="rgba(2,6,23,.58)" stroke="#22D3EE" stroke-opacity="0.24"/>
<text id="edit-skill-7-3" x="114" y="851" class="mono" font-size="12" fill="#ECFEFF">Threat Models</text>
<rect x="305" y="832" width="188" height="28" rx="14" fill="rgba(2,6,23,.58)" stroke="#22D3EE" stroke-opacity="0.24"/>
<text id="edit-skill-7-4" x="319" y="851" class="mono" font-size="12" fill="#ECFEFF">Audit Logs</text>
<rect x="100" y="866" width="188" height="28" rx="14" fill="rgba(2,6,23,.58)" stroke="#22D3EE" stroke-opacity="0.24"/>
<text id="edit-skill-7-5" x="114" y="885" class="mono" font-size="12" fill="#ECFEFF">Model Cards</text>
<rect x="305" y="866" width="188" height="28" rx="14" fill="rgba(2,6,23,.58)" stroke="#22D3EE" stroke-opacity="0.24"/>
<text id="edit-skill-7-6" x="319" y="885" class="mono" font-size="12" fill="#ECFEFF">Risk Controls</text>
<rect x="100" y="900" width="188" height="28" rx="14" fill="rgba(2,6,23,.58)" stroke="#22D3EE" stroke-opacity="0.24"/>
<text id="edit-skill-7-7" x="114" y="919" class="mono" font-size="12" fill="#ECFEFF">Responsible AI</text>
<rect x="305" y="900" width="188" height="28" rx="14" fill="rgba(2,6,23,.58)" stroke="#22D3EE" stroke-opacity="0.24"/>
<text id="edit-skill-7-8" x="319" y="919" class="mono" font-size="12" fill="#ECFEFF">Security Docs</text>
</g>
</svg>
