<svg xmlns="http://www.w3.org/2000/svg" width="174" height="54" viewBox="0 0 174 54" role="img" aria-labelledby="title desc">
<title id="title">Email</title>
<desc id="desc">Email profile button</desc>
<defs>
  <linearGradient id="bg-email" x1="0" y1="0" x2="1" y2="1">
    <stop offset="0%" stop-color="#111827"/>
    <stop offset="52%" stop-color="#0B1F2A"/>
    <stop offset="100%" stop-color="#061F1B"/>
  </linearGradient>
  <linearGradient id="stroke-email" x1="0" y1="0" x2="1" y2="0">
    <stop offset="0%" stop-color="#22D3EE"/>
    <stop offset="46%" stop-color="#A78BFA"/>
    <stop offset="100%" stop-color="#FB7185"/>
  </linearGradient>
  <filter id="shadow-email" x="-16%" y="-32%" width="132%" height="164%">
    <feDropShadow dx="0" dy="7" stdDeviation="7" flood-color="#020617" flood-opacity="0.45"/>
  </filter>
</defs>
<rect x="2" y="2" width="170" height="50" rx="14" fill="url(#bg-email)" stroke="url(#stroke-email)" stroke-width="1.3" filter="url(#shadow-email)"/>
<rect x="10" y="9" width="38" height="36" rx="11" fill="#020617" opacity="0.72"/>
<rect x="11" y="10" width="36" height="34" rx="10" fill="#F8FAFC" opacity="0.08"/>
<svg x="17" y="15" width="24" height="24" viewBox="0 0 24 24" preserveAspectRatio="xMidYMid meet" fill="#EA4335" color="#EA4335"><path d="M24 5.457v13.909c0 .904-.732 1.636-1.636 1.636h-3.819V11.73L12 16.64l-6.545-4.91v9.273H1.636A1.636 1.636 0 0 1 0 19.366V5.457c0-2.023 2.309-3.178 3.927-1.964L5.455 4.64 12 9.548l6.545-4.91 1.528-1.145C21.69 2.28 24 3.434 24 5.457z"/></svg>
<text x="60" y="24" font-family="Inter, Segoe UI, Arial, sans-serif" font-size="13" font-weight="800" fill="#ECFEFF">Email</text>
<text x="60" y="39" font-family="JetBrains Mono, Consolas, monospace" font-size="9" font-weight="700" fill="#9EEBD9">say hello</text>
</svg>
