<svg xmlns="http://www.w3.org/2000/svg" width="174" height="54" viewBox="0 0 174 54" role="img" aria-labelledby="title desc">
<title id="title">GitHub</title>
<desc id="desc">GitHub profile button</desc>
<defs>
  <linearGradient id="bg-github" x1="0" y1="0" x2="1" y2="1">
    <stop offset="0%" stop-color="#111827"/>
    <stop offset="52%" stop-color="#0B1F2A"/>
    <stop offset="100%" stop-color="#061F1B"/>
  </linearGradient>
  <linearGradient id="stroke-github" x1="0" y1="0" x2="1" y2="0">
    <stop offset="0%" stop-color="#22D3EE"/>
    <stop offset="46%" stop-color="#A78BFA"/>
    <stop offset="100%" stop-color="#FB7185"/>
  </linearGradient>
  <filter id="shadow-github" x="-16%" y="-32%" width="132%" height="164%">
    <feDropShadow dx="0" dy="7" stdDeviation="7" flood-color="#020617" flood-opacity="0.45"/>
  </filter>
</defs>
<rect x="2" y="2" width="170" height="50" rx="14" fill="url(#bg-github)" stroke="url(#stroke-github)" stroke-width="1.3" filter="url(#shadow-github)"/>
<rect x="10" y="9" width="38" height="36" rx="11" fill="#020617" opacity="0.72"/>
<rect x="11" y="10" width="36" height="34" rx="10" fill="#F8FAFC" opacity="0.08"/>
<svg x="17" y="15" width="24" height="24" viewBox="0 0 24 24" preserveAspectRatio="xMidYMid meet" fill="#FFFFFF" color="#FFFFFF"><path d="M12 .297c-6.63 0-12 5.373-12 12 0 5.303 3.438 9.8 8.205 11.385.6.113.82-.258.82-.577 0-.285-.01-1.04-.015-2.04-3.338.724-4.042-1.61-4.042-1.61C4.422 18.07 3.633 17.7 3.633 17.7c-1.087-.744.084-.729.084-.729 1.205.084 1.838 1.236 1.838 1.236 1.07 1.835 2.809 1.305 3.495.998.108-.776.417-1.305.76-1.605-2.665-.3-5.466-1.332-5.466-5.93 0-1.31.465-2.38 1.235-3.22-.135-.303-.54-1.523.105-3.176 0 0 1.005-.322 3.3 1.23.96-.267 1.98-.399 3-.405 1.02.006 2.04.138 3 .405 2.28-1.552 3.285-1.23 3.285-1.23.645 1.653.24 2.873.12 3.176.765.84 1.23 1.91 1.23 3.22 0 4.61-2.805 5.625-5.475 5.92.42.36.81 1.096.81 2.22 0 1.606-.015 2.896-.015 3.286 0 .315.21.69.825.57C20.565 22.092 24 17.592 24 12.297c0-6.627-5.373-12-12-12"/></svg>
<text x="60" y="24" font-family="Inter, Segoe UI, Arial, sans-serif" font-size="13" font-weight="800" fill="#ECFEFF">GitHub</text>
<text x="60" y="39" font-family="JetBrains Mono, Consolas, monospace" font-size="9" font-weight="700" fill="#9EEBD9">fishman7337</text>
</svg>
