<svg xmlns="http://www.w3.org/2000/svg" width="204" height="54" viewBox="0 0 204 54" role="img" aria-labelledby="title desc">
<title id="title">LinkedIn</title>
<desc id="desc">LinkedIn profile button</desc>
<defs>
  <linearGradient id="bg-linkedin" x1="0" y1="0" x2="1" y2="1">
    <stop offset="0%" stop-color="#111827"/>
    <stop offset="52%" stop-color="#0B1F2A"/>
    <stop offset="100%" stop-color="#061F1B"/>
  </linearGradient>
  <linearGradient id="stroke-linkedin" x1="0" y1="0" x2="1" y2="0">
    <stop offset="0%" stop-color="#22D3EE"/>
    <stop offset="46%" stop-color="#A78BFA"/>
    <stop offset="100%" stop-color="#FB7185"/>
  </linearGradient>
  <filter id="shadow-linkedin" x="-16%" y="-32%" width="132%" height="164%">
    <feDropShadow dx="0" dy="7" stdDeviation="7" flood-color="#020617" flood-opacity="0.45"/>
  </filter>
</defs>
<rect x="2" y="2" width="200" height="50" rx="14" fill="url(#bg-linkedin)" stroke="url(#stroke-linkedin)" stroke-width="1.3" filter="url(#shadow-linkedin)"/>
<rect x="10" y="9" width="38" height="36" rx="11" fill="#020617" opacity="0.72"/>
<rect x="11" y="10" width="36" height="34" rx="10" fill="#F8FAFC" opacity="0.08"/>
<svg x="17" y="15" width="24" height="24" viewBox="0 0 24 24" preserveAspectRatio="xMidYMid meet"><path fill="#0A66C2" d="M20.447 20.452h-3.554v-5.569c0-1.328-.027-3.037-1.852-3.037c-1.853 0-2.136 1.445-2.136 2.939v5.667H9.351V9h3.414v1.561h.046c.477-.9 1.637-1.85 3.37-1.85c3.601 0 4.267 2.37 4.267 5.455v6.286zM5.337 7.433a2.06 2.06 0 0 1-2.063-2.065a2.064 2.064 0 1 1 2.063 2.065m1.782 13.019H3.555V9h3.564zM22.225 0H1.771C.792 0 0 .774 0 1.729v20.542C0 23.227.792 24 1.771 24h20.451C23.2 24 24 23.227 24 22.271V1.729C24 .774 23.2 0 22.222 0z"/></svg>
<text x="60" y="24" font-family="Inter, Segoe UI, Arial, sans-serif" font-size="13" font-weight="800" fill="#ECFEFF">LinkedIn</text>
<text x="60" y="39" font-family="JetBrains Mono, Consolas, monospace" font-size="9" font-weight="700" fill="#9EEBD9">Goh Kun Ming</text>
</svg>
