<svg xmlns="http://www.w3.org/2000/svg" width="226" height="54" viewBox="0 0 226 54" role="img" aria-labelledby="title desc">
<title id="title">Read preprint</title>
<desc id="desc">Read preprint profile button</desc>
<defs>
  <linearGradient id="bg-read-preprint" x1="0" y1="0" x2="1" y2="1">
    <stop offset="0%" stop-color="#111827"/>
    <stop offset="52%" stop-color="#0B1F2A"/>
    <stop offset="100%" stop-color="#061F1B"/>
  </linearGradient>
  <linearGradient id="stroke-read-preprint" x1="0" y1="0" x2="1" y2="0">
    <stop offset="0%" stop-color="#22D3EE"/>
    <stop offset="46%" stop-color="#A78BFA"/>
    <stop offset="100%" stop-color="#FB7185"/>
  </linearGradient>
  <filter id="shadow-read-preprint" x="-16%" y="-32%" width="132%" height="164%">
    <feDropShadow dx="0" dy="7" stdDeviation="7" flood-color="#020617" flood-opacity="0.45"/>
  </filter>
</defs>
<rect x="2" y="2" width="222" height="50" rx="14" fill="url(#bg-read-preprint)" stroke="url(#stroke-read-preprint)" stroke-width="1.3" filter="url(#shadow-read-preprint)"/>
<rect x="10" y="9" width="38" height="36" rx="11" fill="#020617" opacity="0.72"/>
<rect x="11" y="10" width="36" height="34" rx="10" fill="#F8FAFC" opacity="0.08"/>
<svg x="17" y="15" width="24" height="24" viewBox="0 0 24 24" preserveAspectRatio="xMidYMid meet" fill="#B31B1B" color="#B31B1B"><path d="M3.8423 0a1.0037 1.0037 0 0 0-.922.6078c-.1536.3687-.0438.6275.2938 1.1113l6.9185 8.3597-1.0223 1.1058a1.0393 1.0393 0 0 0 .003 1.4229l1.2292 1.3135-5.4391 6.4444c-.2803.299-.4538.823-.2971 1.1986a1.0253 1.0253 0 0 0 .9585.635.9133.9133 0 0 0 .6891-.3405l5.783-6.126 7.4902 8.0051a.8527.8527 0 0 0 .6835.2597.9575.9575 0 0 0 .8777-.6138c.1577-.377-.017-.7502-.306-1.1407l-7.0518-8.3418 1.0632-1.13a.9626.9626 0 0 0 .0089-1.3165L4.6336.4639s-.3733-.4535-.768-.463zm0 .272h.0166c.2179.0052.4874.2715.5644.3639l.005.006.0052.0055 10.169 10.9905a.6915.6915 0 0 1-.0072.945l-1.0666 1.133-1.4982-1.7724-8.5994-10.39c-.3286-.472-.352-.6183-.2592-.841a.7307.7307 0 0 1 .6704-.4401Zm14.341 1.5701a.877.877 0 0 0-.6554.2418l-5.6962 6.1584 1.6944 1.8319 5.3089-6.5138c.3251-.4335.479-.6603.3247-1.0292a1.1205 1.1205 0 0 0-.9763-.689zm-7.6557 12.2823 1.3186 1.4135-5.7864 6.1295a.6494.6494 0 0 1-.4959.26.7516.7516 0 0 1-.706-.4669c-.1119-.2682.0359-.6864.2442-.9083l.0051-.0055.0047-.0055z"/></svg>
<text x="60" y="24" font-family="Inter, Segoe UI, Arial, sans-serif" font-size="13" font-weight="800" fill="#ECFEFF">Read preprint</text>
<text x="60" y="39" font-family="JetBrains Mono, Consolas, monospace" font-size="9" font-weight="700" fill="#9EEBD9">arXiv:2508.09209</text>
</svg>
